<svg xmlns="http://www.w3.org/2000/svg" viewBox="0 0 900.38 298.12"><defs><style>.cls-1{fill:#00437a;}.cls-2{fill:#e84e1b;}.cls-3{fill:#009ee2;}.cls-4{fill:#f29100;}</style></defs><g id="Calque_2" data-name="Calque 2"><g id="Calque_1-2" data-name="Calque 1"><path class="cls-1" d="M335,179.62H445.71V159.81H359.48V19.8h86.23V0H335ZM230.5,0H206.19V179.62h102V159.18H230.5ZM87,0,15.17,179.62H34a7.94,7.94,0,0,0,5.26-1.76,9.81,9.81,0,0,0,3-4L59,130.48l6.76-17.55L94,40q1.24-3.25,2.57-7.58t2.69-9.46a135.8,135.8,0,0,0,5.39,16.92l28.21,73.07,6.76,17.55,16.8,43.37a10,10,0,0,0,3,4.14,8.1,8.1,0,0,0,5.26,1.63h18.8L111.68,0ZM733.18,55.65a61.73,61.73,0,0,0-4.08-22.94,45.13,45.13,0,0,0-12.34-17.54A56.89,56.89,0,0,0,695.89,4Q683.29,0,666.24,0h-53V179.62h24.2V112.43h28.82a90.19,90.19,0,0,0,28.71-4.2,59.67,59.67,0,0,0,21-11.71,49.31,49.31,0,0,0,12.85-17.93,58.37,58.37,0,0,0,4.39-22.94M706.1,70.82A31.88,31.88,0,0,1,698,82.66a37.58,37.58,0,0,1-13.35,7.71,56,56,0,0,1-18.37,2.76H637.42V19.18h28.82q21.45,0,32,9.65t10.59,26.82a40.47,40.47,0,0,1-2.76,15.17M816.62,0H791.93L720.11,179.62h18.8a7.94,7.94,0,0,0,5.26-1.76,9.72,9.72,0,0,0,3-4L764,130.48l6.76-17.55L799,40q1.24-3.25,2.56-7.58t2.7-9.46a135.8,135.8,0,0,0,5.39,16.92l28.2,73.07,6.77,17.55,16.8,43.37a10,10,0,0,0,3,4.14,8.12,8.12,0,0,0,5.26,1.63h18.81ZM480.68,179.62h24.45V19.8h86.23V0H480.68Z"/><path class="cls-2" d="M91.23,106.54l.14-.08-.69-.19Z"/><path class="cls-2" d="M188.9,123.94a2.3,2.3,0,0,1,0,.26C189,124.09,189,124,188.9,123.94Z"/><path class="cls-2" d="M33.34,85.51h0a5.29,5.29,0,0,0-.56-.05A.88.88,0,0,0,33.34,85.51Z"/><path class="cls-2" d="M173.1,110.17c4.54,1,8.93,4.15,13.38,3.81a6,6,0,0,0,5.3-1c-8.29-2.15-15.07-5.62-22.55-9.58a51.84,51.84,0,0,1-8.63-3c-10.39-3.55-20.14-9-30.91-12.08.45.47-.28.66-.87.58l0-.28-1,.23c-.81-.24-.23-.78.45-.63-4.18-1.52-8-2.66-12-4.29-.55.68-2.14-.74-2.58,0-.13-.23.06-.2.23-.32-3-.62-3.18-.67-5.4-2.61-10.77-4.67-21.59-8-32.34-12.16-11-3.84-22-7.08-33.39-11-2.17.62-4.33-.82-6.76-.49l.27-.33c-1.8-.07-2.11-.78-3.78-1.91l-2.22-1.49-2.35,3.63-.26.39c.43.19-.19.9.65.85.34,1-1.53,1-1.6,2.22-.26-.05.44.13.13.28-.15,3.16-.2-.69-2.22,2.66-1.29,4.24-2.28,8.69-3.84,12.73l-1.32,3.42L23,81.23c.85.33,1.69.69,2.5,1.07-.31-.07-.24-.7.26-.54,0,1.35,1.75.27,2.43,1-.15.23-.59.15-.85.18,2,1.29,4.13,1.22,6,2.52,2.15.22,4.07,2.07,5.6,1.95-.48.35.76.67,1.11,1.06,1.94-.89,3.68,1.89,5.82,1.61l-.15.22c5.41,1.85,11.15,4.3,17,5.7,3.21,1,6.31,3.55,10,4.18.71.06.31-.43.88-.38.86.35-.17.44.11.72,1.91.06,3.92,1.56,6.06,2.32.34-.13,1,0,.88-.38,2,1.81,5.75,1.72,7.93,3.31-.4-1.53,1.68-.13,2.64-.11.46.23.4.56.17.75a17.91,17.91,0,0,1,4.89,2c1.06.23,1.57-.33,2.71.29.45,1.12,2.52,1,3.59,1.7,0-.83,1.68-.86,2.75-.12l-.74.89c4,.72,9,3.86,13.91,4.19l.11.71c4.81,1,9,3.34,13.82,3.78a20.93,20.93,0,0,0,4.05,2.07c1.79.06,2.33.33,3.72-.1.61.16.81.77.95,1.06,2,.89,3.57,2.43,5.53,2.06l-.12.53c1.78.07,4.32.27,5.9,1.51.67-.28,2.53.2,1.93-.68.75.15.14,1,1.06.74l-.94.49A77.49,77.49,0,0,0,166,131.08c.81,1.29,3.75,1.26,5.78,2.55,1.47,0,3.47,1.49,4.83.76l-.12.53c1.71.69,4,1.54,6.22,2.62l.06,0,1.63.79.93-2c.57-1.22-.16-1.5-.05-2.62l.53.13a3.21,3.21,0,0,0-.84-2.34l.16-.44c.34-.53.2-.79.76-1.44a5.07,5.07,0,0,0,.74,2.71c.73-1.32,0-3.2,1.05-3.78.6-1.08.74-2,.2-2.41.2,0,.6-.58.65.07a4.39,4.39,0,0,0,.36-2.06,3.4,3.4,0,0,0-.27.54c-.32-.55-.09-1.28-.63-1.5l.41-1.11c.47.1.39,1.28.9.77l-.35-2.29,1.5-4.11Zm-2.24-1.42c.84.12.69.53.63.84l-3.17-1.16A14.58,14.58,0,0,0,170.86,108.75ZM140.06,98c2.69,0,4.58,2.67,6.91,1.7l.87-.45c.47.47.26.92.61,1.31.63-.27,2.22.67,2.72.18.15.36-.24.31-.3.51,1,.54,2.68,0,3.64.61l-.44.19a70.63,70.63,0,0,0,6.32,3.51l-23.67-8.61a26.57,26.57,0,0,0,3.66.68C140.51,97.83,140.23,97.86,140.06,98Zm46.49,29.33a2,2,0,0,1-.38,1Zm1.13-3a.08.08,0,0,1,0,0l.19-.55A1.24,1.24,0,0,1,187.68,124.32Z"/><path class="cls-2" d="M31.28,66.08a.79.79,0,0,0,0-.09l0,0Z"/><path class="cls-3" d="M554.33,86l-.66-3.71h0l-.4-2.28.24.4c-.29-.69-.12-1.58.4-1.38l-.6-1.34.6,0c-.62-2.32-.33-4-1.22-6.4l-.43,1a15.63,15.63,0,0,0-.72-2.09l-.26-1.47a2.43,2.43,0,0,1,.1-.59c.33.61.55.09.88,0-.17-.31-.47-.63-.44-1l.87.37a2.48,2.48,0,0,1-.88-1.76l-.19-1-1,.18a23.64,23.64,0,0,0-2.52.38l.17-.23c-2.2,0,.47.5-1,.77-1.25,0-.65-1-1.85-1.23-2.14.41-5.7,1.83-8.24,1.47a38.35,38.35,0,0,0-5.59,2c-1.71.3-.08-1.06-1.74-.3.13-.38-.18-.71-.39-1-.16.43-3.22.51-1.69,1.16a55.1,55.1,0,0,0-7.95,1.31c.86-.22,1-.9.2-1.09a11.54,11.54,0,0,1-5.41,1.79c.15.65.87.52.75,1.2a3.61,3.61,0,0,1-1.35.6c-.44-.63-.52-1.69-2.51-1.37.34-1.16,3.39-.45,2.31-1.35.72-1,4.28-1.69,5.18-1.31,1.6-1.22-1.4.14-1.23-.81-1.58.35-2.23.95-4.68,1.52.06.47.9.38-.16,1-2,1.34-2.86-.19-3.42-.13.3-.17.74-.28,1-.44-1.51-.06-1.9.65-3.45.87-.64-1.14,2.43-.57,2.86-1.42l-1.26-.67c-2.39.29-.47,1.11-3,1.22l.22-.49-1.47.54c.06.46.5,1.09,1.8.77-.66,1.33-1.18.38-3.21,1-.54.79.87-.21,1,.44s-1.11.85-2.12,1.14c-1.71.3-1-.57-1.78-.9.31-.16,1.6-.48,1.53-.07,2-1.07-1.16-1.23.21-2-1.66-.11-1.47.66-2.25,1,.46,0-.14.72.26.9-2.48,2.3-2-1-4.65-.22.77,1.06-3.28,2.25-1.11,3.18a4.78,4.78,0,0,1-2.05.73c.56-.92-1.31-.41-.18-1.38l-1,.16,1.3-1.2c-1.18-.35-3.07-.57-3.71-.84-1.35.6.57.68-1,1.17.5-.52-.56-.68-1.29-.54,1.51,0,.22,1.11-.66,1.47-1.43.26-2.71-.28-2.53-.5l1.27-.92c-1,.76-.52-.22-1.56.21-.23.49-.77,1.29-1,1.91-.88.35-1.63-.11-1.93,0l1.37-.73c-1.88.51-.63-1.14-2.53-.48l-.4.7c-.41,0-.64-.28-.32-.57-.22.49-1.35.59-1.8.84l-.21-.38c-.76.41-1.63,1.49-2.76.87.95.84,1-.16,2.47,0,1,.56-1.27.92-1.56,1.08-.1-1.06-2.13.28-3.11.44-.65-.27-1.18-.35-1.57-.52l-.26.76c-.61-1.28-1.92.66-3.11.44.5-.52.32-1-.5-1.09,1.24.82-1.51,1.55-1.07,2.17-2.07,0,.24-1.35-.48-2-.85,1-2.31-.11-2.8,1,1.5.05-.11.67-.34,1.17-1.83.24.23-.5-1.12-.63-.74.27-1.6,1.22-.37,1.3-1.11,0-2.13,1.14-3.43.74-.6-.54,2.18-.68,1.41-1-2.54.38-1,1.77-3.31,2.4,1.06.16.29,1.44-.77,2-2.66.19,1.06-.57-.07-1.2l-1,.31c-1.64-.85,2.76-2.34,1.22-3l-1.06.57c.19-.36.45-1-.06-1.2-.15.82-2.6.65-2.77.87-.12.68.88-.34.79.19-1.17.39-1.51,1.55-3.43,1.48.93-.64-.54-.82-.19-1.26-.94-.11-.15.81-1.5.68l.08-.41c-4.82.74-10.8,1.86-14.64,4.16-.87-.51-2.43-.3-4.9-.33,1.09,0,.16.67-.43.85L424,84.11c-1.49-.2-3.19.84-4.4,1.49a.91.91,0,0,1-.46-.49c-1.33-.27-1.22.65-1.67.9l-.91-.38-.08.54c-1.2.52-2.87.68-2.87-.19-.45.25-.91.49-.24.63-1.33-.27-4.74.33-6.93,1,1.09,0,1.05.31,1.23.82-.16.95-.53-.08-1.34.6-.08-.33-1.15-.49-.11-.93-3.19-.62-7.21,1-11,1.47-.74.27-.48.38-.8.68-2.54-.49-5.27,1-7.9,1,.64.28,0,1.47-1.4,1.74-1.42,1-.8-.92-2.29-1.11a6.34,6.34,0,0,1-2.49.84l0-.14a4.79,4.79,0,0,1-3.17.85l.15-.08a18,18,0,0,0-2.75,0c-.27.76-2.46.7-2.87,1.41-.12-.05,0-.14-.23-.24l0,.59-1.79,0c.34-.3.38-.57.84-.82-1.91-.08-.53.65-1.44,1.14-1.22.66-1.25.06-1.91-.07.48-.39,1,0,1.27-.2.65-.6-.81,0-.9-.38-.28,0-.27.77-1.24.79s-2.71.6-2.6-.08c-.64.46-1.47.54-1.95.92.69,0,1.93,0,2.15.33-.59.19-1.76.57-2,.32l.45-.24c-.45.24-2.26.36-1.24.79l-1.4-.6c-.38.57-1.65.76-2.67,1.06-.16-.64.55-1.52-1.42-1.33l-1.54,1c-.87.22-1.12.11-1-.3-3.06.16-2.75,2.34-5.2,2.18.85-1,0-.88-1.08-.9a.57.57,0,0,1-.51.51c.37.31.53-.65,1.43-.27.34.44-.91.49-1.37.74-2.38-1.31-7,.82-10.57.63.4.89-1.47.54-2.1,1,0-1-1.88.51-2.92.08l.68.87c-2.16-.18-3.12,2.05-4.6,1.12-1.22-.08.27-.76.73-1-1.79-.76-4.15,1.61-5.63.68-.08.41.52,1-.82,1.55-1.2-.21-3.52-.33-3.35-.54-.89.35-1.09.7-2.16.54.05-.27.48-.38.78-.55a10.42,10.42,0,0,0-4.22,1.29,4.76,4.76,0,0,0-2.56-.07l-2.91.38.42,3.17a20.4,20.4,0,0,1,.28,3.11c1.08.88.16,3.06,1.35,3-.13,0-.24.24-.29.36.46.63,1.31,1.06,1.52,1.93l-.82-.15c-.94,0,.09,2.19-.12,2.76.42-.6.13,1.09.7,1.06l.42,1c.49,1.62.41.13.88,2.14.25,1.14-.82.55-.79.14a5.25,5.25,0,0,0,.52,2.95c-.07-.37,0-.51.2-.19a.3.3,0,0,0-.17.26,7.49,7.49,0,0,1,.32,1.12h0c-.12-.42-.22-.79-.28-1.07a4.28,4.28,0,0,0,.11,1.1c0,.05,0,.15.05.3l0,.28.17,2.44.84-.06-.49-1.58.82,1.56.62,0-.56.17.23.45,1.31-.69h.23a1.59,1.59,0,0,1,.59,0l-.17.66c.71-.1,2.55-1.13,2.44-1.38a33.64,33.64,0,0,0,9.18-1.87c-.33.2-.33.39,0,.13.94-.29,1.93-1,2.09-.62.89-.41.94.26,2.38.06,0,.1.08-.32-.07-.46,2.57.35,5.4-1.62,8.4-1.51-.25-.12-.61.43-.85.72a30.45,30.45,0,0,0,6.11-2.39c-.17.31-.06.55-.56.8,1.55-.28,3.31-.75,3.93-1.44-1.1-.09,0,.34-.72.44-1.21-.33.68-1.24,1.72-1.28l.06.13c1.54-.29,1.55-.63,3.09-.91,1,.18-.78.31-.34.62.53.89,3.63,0,4,0,.32-.27.82-.53.72-.78,1.16-.47.65.47,1.47.27l2.84-2.21.18,0c.16.26,1.1.58.25,1a9.53,9.53,0,0,0,3.59-1.71l5.54-1c-.49.34.78.75.08,1.19,1.28-.57,4.53-.76,6.57-1-1.5-.82,2.17-1,2.34-1.82l1.42-.25c.44.18.21.7.82.75a61,61,0,0,1,7-1.46.19.19,0,0,1-.05.22c1.94-.65,5.19-1,7.1-2.13l.13,0c0,.19.13.34-.33.57,1.23,0,1.17-.41,1.29-.74l1.36-.24-.33.38c1.49-.74,3.13-.11,4.8-1.17h0c.11.26-.27.41-.5.6a33.17,33.17,0,0,0,4-1.22l.84-.15c0,.21-.2.43-.62.66,1.26.07,1.54-.61,2.24-.94l1-.18c.45,0,1.24.24,1,.3a8.75,8.75,0,0,1,2.61-.93l1.26-.22a7.7,7.7,0,0,0,1.7.36c7.87-1.41,16-2.68,23.66-4.83l1-.17c1.22.69-1.87.9-.91,1.41-.21-.83,1.33-.49,3.74-1.2l.13.1c1-.37,1.7.07,2.79-.39l-.08-.22c1.11-.76,2.86.62,3.31-.57l1,.44c1-1.17,1.94,0,3.26-1.09l-.14.2c2.05.08,3.91-1.76,4.8-1.13a10.12,10.12,0,0,0,3.42-1.32l.56-.09a1,1,0,0,1-.18.65c4.46-1.07,9.34-1.91,13.76-3l34.55-6.09a67,67,0,0,0,11.62-2l4.61-.81c.07.16.14.29.42.21.63-.24,1.28-.44,1.94-.63ZM553,77.61a.3.3,0,0,1-.16.14l-.29-1.63a.9.9,0,0,0,.24-.07c-.17-.32-.28-.47-.37-.66l-.14-.79A3.26,3.26,0,0,1,553,77.61Zm-2.17-11.24h0Zm-.62-.43Zm-234.53,64.4-.72.22A1.77,1.77,0,0,1,315.72,130.34Z"/><path class="cls-3" d="M530.41,65.43a3,3,0,0,0-.91.43A1,1,0,0,0,530.41,65.43Z"/><path class="cls-3" d="M499,70.35a2,2,0,0,0,.73-.19A2.43,2.43,0,0,0,499,70.35Z"/><path class="cls-3" d="M309.06,119.8l-.06.1A.24.24,0,0,0,309.06,119.8Z"/><path class="cls-3" d="M338.16,126.86l-.25.08C337.92,127.11,338,127,338.16,126.86Z"/><path class="cls-3" d="M310.79,127.07s0,.08,0,.12v0Z"/><path class="cls-3" d="M529.5,65.86c-.57,0-1.16-.47-1.79,0-.39-.16.41-.71-.44-.63-.66.6.62,1.14,2,1.14l.09.07A.44.44,0,0,1,529.5,65.86Z"/><polygon class="cls-3" points="312.02 131.25 312.08 131.46 312.41 131.35 312.35 131.23 312.02 131.25"/><path class="cls-3" d="M552.69,67.42a.8.8,0,0,0,.25.11Z"/><path class="cls-3" d="M529.36,66.47a1,1,0,0,0,.12.19C529.5,66.6,529.46,66.54,529.36,66.47Z"/><path class="cls-3" d="M552.2,82.68c.36-.49.36-1.87,1.11-.9-.37.2-.7,1-1.11.9"/><path class="cls-3" d="M531.08,66.3c0,.13-.54-.08-.67-.14.44-.11.79-.54,1.18-.38-.44.11-.33.3-.51.52"/><path class="cls-3" d="M521.89,67.65c.08-.4,2-1.05,3.12-1.3Z"/><path class="cls-3" d="M513.1,67.57c-.79-.19-.62-.4.37-.56.11.18-.2.34-.37.56"/><path class="cls-3" d="M512.65,68.55a2.28,2.28,0,0,1-1.48-.18c.08.32,1.6-.5,1.48.18"/><path class="cls-3" d="M494,70.7c-.44.11-1.35.6-1.83.24.51.22,2.07-.86,1.83-.24"/><path class="cls-3" d="M485.47,72.79a1.43,1.43,0,0,0-.71.14c-.54-.08-.05-.46.37-.57Z"/><polygon class="cls-3" points="329.31 101.92 330.21 101.56 330.14 101.97 329.31 101.92"/><polygon class="cls-3" points="379.59 117.75 379.31 117.81 379.27 117.01 379.59 117.75"/><path class="cls-4" d="M757.67,134.9a1,1,0,0,0,.47-.19A1.09,1.09,0,0,0,757.67,134.9Z"/><path class="cls-4" d="M889.45,81a.29.29,0,0,0,0-.09s0,0,0,0Z"/><path class="cls-4" d="M893.33,93.77a10.38,10.38,0,0,1-.33-2.21c-1.08-.5-.2-2.2-1.38-2,.13,0,.24-.21.29-.31-.46-.4-1.31-.59-1.52-1.2h.8c1-.1-.28-1.8.14-2.1-.5.71-.18-.7-.76-.6l-.44-.65c-.5-1.11-.41,0-.89-1.44-.26-.8.79-.51.77-.21a2.76,2.76,0,0,0-.56-2.08c.08.26,0,.38-.18.17a.27.27,0,0,0,.15-.23,3.53,3.53,0,0,1-.32-.75h0c.12.27.22.53.29.72a2.52,2.52,0,0,0-.12-.75c.05,0,0-.13-.06-.24a1.22,1.22,0,0,1,0-.63l.64,0c-.1-.51-1.14-1.7-1.38-1.59a12.53,12.53,0,0,0-.77-3.59l-1-2.79-2.41.84a20.1,20.1,0,0,0-2.83,1.2c.21-.19.19-.38,0-.12-.64.3-1.27,1-1.43.64-.6.42-.72-.24-1.75,0,0-.09,0,.32.12.46-1.92-.31-3.71,1.67-5.91,1.61.2.11.39-.43.53-.72A16.6,16.6,0,0,0,869,77.66c.08-.31,0-.54.3-.8-1.08.31-2.31.8-2.66,1.48.81.07,0-.34.47-.44.92.31-.33,1.23-1.09,1.28l-.06-.12c-1.08.3-1,.64-2.12.94-.74-.16.52-.32.17-.61-.51-.88-2.64.07-2.9,0-.2.28-.53.54-.42.78-.78.47-.53-.45-1.11-.24l-1.76,2.21-.14,0c-.15-.26-.86-.56-.31-1A5.35,5.35,0,0,0,855,82.91l-3.9,1c.29-.34-.67-.73-.23-1.16-.85.58-3.19.82-4.64,1,1.19.78-1.45,1-1.47,1.82l-1,.26c-.35-.17-.26-.69-.72-.71a32.67,32.67,0,0,1-4.86,1.53.21.21,0,0,1,0-.21c-1.33.66-3.65,1-4.88,2.19l-.09,0c0-.19-.14-.34.17-.57-.89,0-.8.42-.85.75l-1,.25.19-.38c-1,.76-2.27.16-3.34,1.23h0c-.11-.25.15-.4.29-.59a16.4,16.4,0,0,0-2.76,1.25l-.6.16a.78.78,0,0,1,.37-.65c-.93,0-1,.61-1.49,1l-.73.19c-.33,0-.9-.22-.73-.28A4.59,4.59,0,0,1,821,92l-.9.24a4.61,4.61,0,0,0-1.28-.32c-5.52,1.5-11.22,2.87-16.52,5.09l-.71.19c-1-.66,1.24-.91.47-1.4.27.82-.9.51-2.56,1.24l-.1-.1c-.7.38-1.25,0-2,.43l.09.21c-.71.76-2.18-.56-2.34.61l-.81-.41c-.57,1.16-1.4,0-2.22,1.12l.08-.2c-1.5,0-2.61,1.79-3.34,1.18a5.62,5.62,0,0,0-2.31,1.35l-.4.1a1.25,1.25,0,0,1,0-.64c-3.09,1.12-6.53,2-9.59,3.2l-24.33,6.52a34.42,34.42,0,0,0-8.15,2.18l-3.25.88c-.07-.16-.15-.29-.34-.2a14.44,14.44,0,0,1-1.31.64l-16.78,4.49h0l-1.1.3,1.13,4.22-.24-.25c.3.46.14,1.12-.37,1l.6.89-.58.11c.65,1.6.38,2.9,1.3,4.49l.4-.8a7.91,7.91,0,0,0,.74,1.41l.28,1.06a1.38,1.38,0,0,1-.09.43c-.34-.4-.54,0-.86.1.17.2.46.4.45.7l-1.11-.2c1.42.09,1.21,2.6,1.54,3l-.22-.1c0,1.61.48-.41.76.6.07.9-1,.61-1.17,1.51.16.57.48,1.28.79,2l.84,2.08,1.62-.66a7.52,7.52,0,0,1,3.76-.78,20.57,20.57,0,0,0,3.79-2.06c1.2-.32.21,1,1.3.26a1.61,1.61,0,0,0,.43,1c.06-.42,2.28-.54,1.07-1.16a27.86,27.86,0,0,0,5.6-1.41c-.59.23-.59.9,0,1.07a6.15,6.15,0,0,1,3.69-1.83c-.2-.65-.7-.51-.7-1.18.2-.16.49-.55.89-.6.41.61.61,1.65,2,1.3-.09,1.15-2.4.5-1.49,1.37-.39,1-2.89,1.72-3.6,1.36-1,1.23,1-.15,1,.79,1.1-.38,1.49-1,3.2-1.57-.1-.46-.71-.36,0-.94,1.29-1.35,2.1.14,2.5.08-.2.17-.5.28-.69.44,1.1,0,1.29-.67,2.38-.91.62,1.12-1.68.6-1.89,1.45l1,.64c1.69-.33.18-1.1,2-1.25l-.1.49,1-.56a1,1,0,0,0-1.41-.73c.29-1.31.81-.38,2.2-1,.29-.79-.6.22-.8-.42s.69-.85,1.39-1.15c1.2-.32.81.54,1.4.86-.19.16-1.09.5-1.09.09-1.3,1.08,1,1.2.11,1.94,1.23.08,1-.69,1.53-1.07-.38,0,0-.7-.34-.87,1.49-2.3,1.6,1,3.41.15-.71-1,2.09-2.27.38-3.15a2.53,2.53,0,0,1,1.4-.74c-.3.91,1,.37.31,1.35l.69-.18-.79,1.21c.9.33,2.3.51,2.81.77.9-.61-.52-.66.59-1.16-.3.5.51.65,1,.51-1.1,0-.32-1.09.28-1.46,1-.29,2,.23,1.91.45l-.8.93c.59-.77.41.2,1.1-.24.1-.48.39-1.27.49-1.89.6-.36,1.21.08,1.4-.08l-.89.74c1.29-.53.61,1.11,1.9.44l.2-.7c.3,0,.51.26.3.56.1-.49.91-.61,1.2-.86l.2.38c.5-.42,1-1.5,1.9-.9-.81-.82-.7.18-1.8,0-.81-.55.79-.93,1-1.09.22,1,1.5-.3,2.2-.48.5.25.9.33,1.21.49l.09-.76c.61,1.25,1.3-.67,2.2-.48-.29.52-.1,1,.51,1.07-1-.78.89-1.55.49-2.15,1.5,0,0,1.33.6,1.92.5-1,1.71.07,1.91-1-1.11,0,0-.67.08-1.16,1.31-.27-.09.49.91.6.5-.28,1-1.22.09-1.29.8,0,1.4-1.15,2.4-.77.5.52-1.49.7-.89,1,1.79-.41.48-1.75,2.08-2.41-.79-.14-.4-1.41.29-2,1.91-.22-.69.58.21,1.18l.7-.31c1.31.81-1.68,2.35-.48,3l.69-.58c-.09.36-.19,1,.21,1.18,0-.8,1.8-.68,1.9-.89,0-.68-.6.35-.6-.18.8-.39.89-1.55,2.29-1.5-.59.63.5.79.31,1.23.7.09,0-.8,1-.69v.4c3.41-.79,7.61-2,10.09-4.31.71.49,1.81.26,3.61.25-.8,0-.21-.65.19-.84l1,.52c1.1.16,2.2-.88,3-1.54a1,1,0,0,1,.41.47c1,.25.8-.66,1.09-.91l.71.37v-.54c.8-.53,2-.72,2.1.15.31-.25.6-.5.1-.63,1,.25,3.4-.39,4.9-1.09-.79,0-.8-.28-1-.78,0-.94.4.07.89-.61.1.32.91.46.21.91,2.4.56,5.1-1.13,7.8-1.62.5-.27.29-.38.5-.68,1.9.45,3.69-1,5.6-1.13-.5-.26-.21-1.45.78-1.73.9-1,.71.89,1.81,1.06a3.39,3.39,0,0,1,1.71-.86V111a2.58,2.58,0,0,1,2.19-.88l-.1.08c.6-.09,1.4.18,2,0,.08-.75,1.69-.73,1.89-1.43.09,0,0,.13.2.24l-.1-.59h1.3c-.2.3-.2.56-.5.81,1.4,0,.3-.65.9-1.14.79-.66.9-.08,1.4,0-.3.39-.7,0-.9.21-.4.6.6,0,.7.36.2,0,.1-.75.8-.79s1.89-.63,1.9,0c.4-.46,1-.55,1.3-.93-.51,0-1.41.07-1.62-.29.41-.2,1.21-.6,1.41-.36l-.3.25c.3-.25,1.6-.39.8-.79l1.1.57c.2-.57,1.1-.78,1.8-1.09.2.64-.19,1.51,1.21,1.29l1-1c.6-.23.81-.13.81.27,2.2-.2,1.69-2.33,3.49-2.21-.5,1,.11.86.9.87a.48.48,0,0,1,.3-.52c-.3-.29-.3.65-1,.29-.3-.42.6-.5.9-.74,1.91,1.25,5-.92,7.6-.78-.41-.87,1-.55,1.4-1,.1,1,1.3-.53,2.1-.13l-.61-.84c1.6.15,2-2,3.21-1.17.89.07-.1.76-.4,1,1.4.72,2.8-1.65,4-.76,0-.4-.5-.93.39-1.54.9.2,2.6.28,2.5.49.61-.36.7-.71,1.5-.56,0,.26-.3.37-.49.54a5.43,5.43,0,0,0,2.89-1.32,2.72,2.72,0,0,0,1.89,0L894,97Z"/><path class="cls-4" d="M722,122.41l.24.26A.85.85,0,0,0,722,122.41Z"/><path class="cls-4" d="M873.08,75.22l.17-.08C873.21,75,873.15,75.06,873.08,75.22Z"/><path class="cls-4" d="M767.63,132.11c.2,0,.3,0,.5-.15.41.08.1.45-.2.57Z"/><polygon class="cls-4" points="844.17 84.8 844.36 84.73 844.5 85.53 844.17 84.8"/><path class="cls-3" d="M20.76,236a4.25,4.25,0,0,1,.33,1.49,2.43,2.43,0,0,1-.91,1.87q-.91.8-1.23.75c-1.74-.32-2.84-1.72-3.31-4.22a39.77,39.77,0,0,0-1.76-6.77l-3.62.32A6.07,6.07,0,0,0,7,230.75a58.18,58.18,0,0,0-1.55,5.87,39.57,39.57,0,0,1-1.76,5.92c-.29.64-.89.82-1.82.53-1.17-.39-1.79-.92-1.86-1.6A13,13,0,0,1,1.19,236,22.73,22.73,0,0,0,3,230.49c0-.33-.2-.68-.69-1.07s-.75-.69-.75-.91a.93.93,0,0,1,.24-.56,2.14,2.14,0,0,1,1.12-.48c.59-.12.92-.31,1-.56q1-2.66,3-9.92A92,92,0,0,1,10,207.34a1.31,1.31,0,0,1,1.34-.75,2.05,2.05,0,0,1,1.33.48,6.16,6.16,0,0,1,1.92,3.84c.21,1.46.41,2.92.59,4.37A167.77,167.77,0,0,0,20.76,236ZM13,225.84a33.83,33.83,0,0,0-.7-4.42c-.35-1.42-.69-2.84-1-4.27-1.06,2.95-2,5.9-2.77,8.85A36.43,36.43,0,0,1,13,225.84Z"/><path class="cls-3" d="M34.31,206.33c0,.71-.51,1.33-1.55,1.86a1.17,1.17,0,0,1-.9.06l-.8-.22a.92.92,0,0,0-.64.32,9.58,9.58,0,0,0-2.88,7,8.41,8.41,0,0,0,.48,2.88q.21.58,4.05,8.27,2.57,5.11,2.56,8.69a11.89,11.89,0,0,1-1.44,5.65,8.62,8.62,0,0,1-2.4,2.35A4.88,4.88,0,0,1,28,244.35a2.49,2.49,0,0,1-.91-.16c-1.07-.46-1.6-1.05-1.6-1.76a2.64,2.64,0,0,1,.8-1.55,1.47,1.47,0,0,1,1-.31,1.14,1.14,0,0,0,1.07-.65,11,11,0,0,0,1.12-4.8q0-3.47-3.44-10.05t-3.44-10.53a12.83,12.83,0,0,1,1.28-5.81A8.74,8.74,0,0,1,28,204.51a5.56,5.56,0,0,1,2.4-.58,4.36,4.36,0,0,1,3.36,1.22A1.8,1.8,0,0,1,34.31,206.33Z"/><path class="cls-3" d="M49.3,206.33c0,.71-.52,1.33-1.55,1.86a1.19,1.19,0,0,1-.91.06c-.5-.14-.76-.22-.8-.22a1,1,0,0,0-.64.32,9.57,9.57,0,0,0-2.87,7,8.41,8.41,0,0,0,.47,2.88q.22.58,4.06,8.27c1.7,3.41,2.56,6.31,2.56,8.69a11.89,11.89,0,0,1-1.44,5.65,8.62,8.62,0,0,1-2.4,2.35A4.9,4.9,0,0,1,43,244.35a2.44,2.44,0,0,1-.9-.16c-1.07-.46-1.6-1.05-1.6-1.76a2.58,2.58,0,0,1,.8-1.55,1.47,1.47,0,0,1,1-.31,1.16,1.16,0,0,0,1.07-.65,11,11,0,0,0,1.12-4.8q0-3.47-3.44-10.05t-3.44-10.53a12.7,12.7,0,0,1,1.28-5.81,8.72,8.72,0,0,1,4.1-4.22,5.56,5.56,0,0,1,2.4-.58,4.33,4.33,0,0,1,3.36,1.22A1.76,1.76,0,0,1,49.3,206.33Z"/><path class="cls-3" d="M71,227.07q-3.14,7.1-8.9,8.43a6.05,6.05,0,0,1-1.39.16q-3,0-6.13-3.31a8.18,8.18,0,0,1-2.08-5.81,18.61,18.61,0,0,1,2.34-8.48,13.15,13.15,0,0,1,2.46-3.31,4.65,4.65,0,0,1,3.14-1.65,2.39,2.39,0,0,1,1.6.64,15.48,15.48,0,0,0,4,1.71,6,6,0,0,1,3.63,2.87,13.76,13.76,0,0,1,1.87,6.14A6.16,6.16,0,0,1,71,227.07Zm-4.26-3.3c-.25-2.6-.95-4.15-2.08-4.65a1.33,1.33,0,0,0-.48-.1c-.43,0-1,.36-1.6,1.06a5,5,0,0,1-1.66,1.45c-.25.1-.6,0-1.06-.32a2.26,2.26,0,0,0-.91-.48.38.38,0,0,0-.27.1,6.2,6.2,0,0,0-1.86,5,6.89,6.89,0,0,0,1.06,3.9c1,1.45,1.84,2.18,2.51,2.18,1.57,0,3.08-1,4.54-2.93A7.39,7.39,0,0,0,66.74,223.77Z"/><path class="cls-3" d="M88.23,206.43c0,1-.64,1.57-1.92,1.82a6.34,6.34,0,0,0-3.09,1.11q-6,6.3-6,16.27a26,26,0,0,0,1.49,8.86c.82,2.27,1.4,3.77,1.76,4.48a8.77,8.77,0,0,0,3.25,3.73c.53.25,1.07.48,1.6.69a1.48,1.48,0,0,1,.85,1.34,2.4,2.4,0,0,1-.55,1.54,1.19,1.19,0,0,1-1.21.54,11.69,11.69,0,0,1-2.13-.7c-1.7-1-3.55-3.11-5.55-6.34l-1.52-2.54a12.5,12.5,0,0,1-1.14-2.48,67.61,67.61,0,0,1-.91-6.88,32.35,32.35,0,0,1-.21-3.63,24.31,24.31,0,0,1,5.49-16.05q3.21-3.84,6.67-3.84a4.45,4.45,0,0,1,2.72.91C88.11,205.44,88.23,205.83,88.23,206.43Z"/><path class="cls-3" d="M93.78,211.61c.07,1,.11,2.09.11,3.2q0,3.63-.75,10.93t-.75,11c0,.92,0,1.83,0,2.72a1.92,1.92,0,0,1-2.08,1.44c-1.53-.07-2.36-.73-2.5-2a35.36,35.36,0,0,1-.22-3.95,99.36,99.36,0,0,1,.88-10.83,96.73,96.73,0,0,0,.88-10.77c0-.93,0-1.83-.1-2.72a1.86,1.86,0,0,1,1.81-1,4.05,4.05,0,0,1,2,.58.62.62,0,0,1,.32-.16c.1,0,.16.18.16.54a2,2,0,0,0,0,.74A.35.35,0,0,0,93.78,211.61Z"/><path class="cls-3" d="M116.28,236a4.21,4.21,0,0,1,.32,1.49,2.42,2.42,0,0,1-.9,1.87q-.92.8-1.23.75c-1.74-.32-2.85-1.72-3.31-4.22a40.73,40.73,0,0,0-1.76-6.77l-3.62.32a6.11,6.11,0,0,0-3.26,1.28c-.39,1.11-.9,3.06-1.55,5.87a39.76,39.76,0,0,1-1.75,5.92c-.29.64-.89.82-1.82.53-1.17-.39-1.79-.92-1.86-1.6A13,13,0,0,1,96.71,236a23.68,23.68,0,0,0,1.76-5.54c0-.33-.2-.68-.7-1.07s-.74-.69-.74-.91a.93.93,0,0,1,.24-.56,2.14,2.14,0,0,1,1.12-.48c.59-.12.91-.31,1-.56q1-2.66,3-9.92a92,92,0,0,1,3.14-9.65,1.3,1.3,0,0,1,1.33-.75,2.06,2.06,0,0,1,1.34.48,6.26,6.26,0,0,1,1.92,3.84c.21,1.46.41,2.92.59,4.37A167.77,167.77,0,0,0,116.28,236Zm-7.79-10.19a32.07,32.07,0,0,0-.69-4.42c-.35-1.42-.69-2.84-1-4.27q-1.61,4.42-2.77,8.85A36.34,36.34,0,0,1,108.49,225.84Z"/><path class="cls-3" d="M145.24,205.36c-.32,1.29-.92,2-1.81,2.24q-3.47.85-12.05,2.25-1.08,13.28-1.07,22.13c0,2.24,0,4.44.11,6.61a4.88,4.88,0,0,1-.11,1.55,1,1,0,0,1-1.07.8,3.33,3.33,0,0,1-2.56-1.31,4.89,4.89,0,0,1-1.12-2.8c-.07-1.31-.1-2.7-.1-4.16,0-2.34.15-6.06.47-11.14.33-4.88.47-8.59.43-11.15a19.57,19.57,0,0,0-4,.27,34.34,34.34,0,0,1-4,.42,6.4,6.4,0,0,1-4.27-1.4c-.43-.93-.64-1.41-.64-1.45a1.25,1.25,0,0,1,.38-.8,35.18,35.18,0,0,1,7-1.08,19.21,19.21,0,0,0,6.93-1.72,13.36,13.36,0,0,0,4.27.64,17.71,17.71,0,0,0,4.59-.59,26.11,26.11,0,0,0,3.25-.74,9,9,0,0,1,3.2-.33c.64,0,.91.27.8.8C144.76,204.4,145.24,204.73,145.24,205.36Z"/><path class="cls-3" d="M144.44,211.61c.07,1,.11,2.09.11,3.2q0,3.63-.75,10.93c-.5,4.87-.74,8.55-.74,11,0,.92,0,1.83.05,2.72a1.92,1.92,0,0,1-2.08,1.44c-1.53-.07-2.37-.73-2.51-2a35.43,35.43,0,0,1-.21-3.95,96.85,96.85,0,0,1,.88-10.83,99.26,99.26,0,0,0,.88-10.77c0-.93,0-1.83-.11-2.72a1.87,1.87,0,0,1,1.81-1,4,4,0,0,1,2,.58.62.62,0,0,1,.32-.16c.11,0,.16.18.16.54a2.67,2.67,0,0,0,0,.74A.39.39,0,0,0,144.44,211.61Z"/><path class="cls-3" d="M165.77,227.07q-3.14,7.1-8.9,8.43a6,6,0,0,1-1.39.16c-2,0-4.07-1.1-6.13-3.31a8.18,8.18,0,0,1-2.08-5.81,18.5,18.5,0,0,1,2.35-8.48,12.89,12.89,0,0,1,2.45-3.31,4.65,4.65,0,0,1,3.15-1.65,2.4,2.4,0,0,1,1.6.64,15.18,15.18,0,0,0,4,1.71,6,6,0,0,1,3.63,2.87,13.76,13.76,0,0,1,1.87,6.14A6.16,6.16,0,0,1,165.77,227.07Zm-4.26-3.3q-.37-3.9-2.08-4.65a1.33,1.33,0,0,0-.48-.1c-.43,0-1,.36-1.6,1.06a5,5,0,0,1-1.66,1.45c-.24.1-.6,0-1.06-.32a2.26,2.26,0,0,0-.91-.48.35.35,0,0,0-.26.1,6.17,6.17,0,0,0-1.87,5,6.82,6.82,0,0,0,1.07,3.9c1,1.45,1.83,2.18,2.5,2.18,1.57,0,3.08-1,4.54-2.93A7.39,7.39,0,0,0,161.51,223.77Z"/><path class="cls-3" d="M191,206.27c-.49,4.77-1,9.55-1.44,14.35a140,140,0,0,0-.9,14.24c0,1.24,0,2.47.1,3.68a1.82,1.82,0,0,1-.61,1.49,2.13,2.13,0,0,1-1.52.64c-1.1,0-2-.75-2.77-2.24a185.07,185.07,0,0,1-8.48-20.91c-.08-.21-.16-.31-.27-.31s-.41.24-.48.74a137.16,137.16,0,0,0-.91,16.06q0,4.05.22,8.26a2.22,2.22,0,0,1-.91,2.14,1.16,1.16,0,0,1-.8.37,2.19,2.19,0,0,1-1-.32l-1-.48c-.47-.14-.75-.57-.86-1.28s-.07-1.16-.1-1.76q-.17-3-.17-6.24,0-5.65.65-14.13,1-12.91,1.12-14.3c0-.78.69-1.17,2-1.17.6-.07,1.49.37,2.67,1.33A83.8,83.8,0,0,1,179.75,217a73.14,73.14,0,0,0,4.37,10.61q.81-7.08,2.51-21.44c.11-.71.62-1.06,1.55-1.06a4.56,4.56,0,0,1,1.12.16c.57.14.9.23,1,.27A1.09,1.09,0,0,1,191,206.27Z"/><path class="cls-3" d="M223,232.42c-.07,0-2.15,1.52-6.24,4.45a36.91,36.91,0,0,1-6.35,3.8,1.34,1.34,0,0,1-.63.16,1.73,1.73,0,0,1-1.39-1c-.64-.85-1-1.3-1-1.34q-.1-4.69.59-13.08.79-8.92.8-12.87,0-2.73-.21-5.13a2.36,2.36,0,0,1,1.76-.7q2,0,2.34,1.5.16,4.37-.37,13.09t-.43,13.09a25,25,0,0,0,3.9-2.24,36,36,0,0,1,3.78-2.4,6.92,6.92,0,0,0,.94-.1,5.83,5.83,0,0,1,1-.11,1.65,1.65,0,0,1,1.55.86A1.67,1.67,0,0,1,223,232.42Z"/><path class="cls-3" d="M244,236a4.45,4.45,0,0,1,.32,1.49,2.4,2.4,0,0,1-.91,1.87q-.9.8-1.23.75c-1.74-.32-2.84-1.72-3.3-4.22a41.74,41.74,0,0,0-1.76-6.77l-3.63.32a6.07,6.07,0,0,0-3.25,1.28,58.18,58.18,0,0,0-1.55,5.87,39.57,39.57,0,0,1-1.76,5.92c-.29.64-.89.82-1.81.53-1.18-.39-1.8-.92-1.87-1.6a13,13,0,0,1,1.17-5.44,22.73,22.73,0,0,0,1.76-5.54c0-.33-.19-.68-.69-1.07s-.75-.69-.75-.91A.93.93,0,0,1,225,228a2.18,2.18,0,0,1,1.12-.48c.59-.12.92-.31,1-.56q1-2.66,3-9.92a89.35,89.35,0,0,1,3.15-9.65,1.29,1.29,0,0,1,1.33-.75,2,2,0,0,1,1.33.48,6.16,6.16,0,0,1,1.92,3.84c.22,1.46.41,2.92.59,4.37A169.37,169.37,0,0,0,244,236Zm-7.79-10.19a33.67,33.67,0,0,0-.69-4.42c-.36-1.42-.7-2.84-1-4.27-1.06,2.95-2,5.9-2.77,8.85A36.55,36.55,0,0,1,236.23,225.84Z"/><path class="cls-3" d="M247.91,201.79c.32,1.25.25,2.1-.22,2.56a2.29,2.29,0,0,1-1.91.59,3.23,3.23,0,0,1-2-1,2.64,2.64,0,0,1-1-1.92,1.73,1.73,0,0,1,.53-1.2,1.4,1.4,0,0,1,1.12-.51c.68,0,1.35.09,2,.16A1.76,1.76,0,0,1,247.91,201.79Zm4.32,9.82c.07,1,.11,2.09.11,3.2q0,3.63-.75,10.93t-.75,11c0,.92,0,1.83,0,2.72a1.91,1.91,0,0,1-2.07,1.44c-1.53-.07-2.37-.73-2.51-2a35.43,35.43,0,0,1-.21-3.95,96.85,96.85,0,0,1,.88-10.83,99.26,99.26,0,0,0,.88-10.77c0-.93,0-1.83-.11-2.72a1.86,1.86,0,0,1,1.81-1,4,4,0,0,1,2,.58.62.62,0,0,1,.32-.16c.11,0,.16.18.16.54a2,2,0,0,0,0,.74A.35.35,0,0,0,252.23,211.61Zm4.58-9.82c.33,1.25.25,2.1-.21,2.56a2.3,2.3,0,0,1-1.92.59,3.18,3.18,0,0,1-2-1,2.64,2.64,0,0,1-1-1.92,1.73,1.73,0,0,1,.53-1.2,1.4,1.4,0,0,1,1.12-.51l2,.16A1.71,1.71,0,0,1,256.81,201.79Z"/><path class="cls-3" d="M276.81,243a1.35,1.35,0,0,1,.16.64,1.47,1.47,0,0,1-.69,1.2,2.39,2.39,0,0,1-1.39.5,2.55,2.55,0,0,1-1.81-1l-1.44-1.65a16.77,16.77,0,0,1-2.4-3c-.71-1.1-1.41-2.2-2.08-3.31l-2.45,1.92a5.14,5.14,0,0,1-2.88,1,5.81,5.81,0,0,1-3.44-1.25,7.24,7.24,0,0,1-2.48-2.91,14.82,14.82,0,0,1-1.23-6.18q0-5.34,3.09-13.39a12.74,12.74,0,0,1,1.61-3.2,5.34,5.34,0,0,1,3.14-2.08,17.46,17.46,0,0,0,2.13-.8,6.07,6.07,0,0,1,2.14-.58,2.25,2.25,0,0,1,1,.21,10.06,10.06,0,0,1,2.13,1.44,13.61,13.61,0,0,1,2.46,6.51,51.27,51.27,0,0,1,.21,7.14,11.45,11.45,0,0,1-1.36,4.16,10.49,10.49,0,0,0-1.31,4.16q.06,2.36,2.88,5.44A29.08,29.08,0,0,1,276.81,243Zm-9.38-16.17a14.9,14.9,0,0,0,1.28-6.39,21,21,0,0,0-1.39-7.63,2.57,2.57,0,0,0-1.68.45c-.8.41-1.61.85-2.43,1.31q-1.92,1-2.66,4.05-.44,2.67-.91,5.34a26,26,0,0,0-.69,5.49,10,10,0,0,0,1.6,5.87.55.55,0,0,0,.53.26,1.79,1.79,0,0,0,1.44-1c0-.07.46-.51,1.28-1.33a2.28,2.28,0,0,0,.8-1.6,2.4,2.4,0,0,0-.32-1.12c-1.21-2.42-1.83-3.68-1.87-3.79a9.71,9.71,0,0,1-.8-4.05c.07-.78.61-1.21,1.6-1.28a3.1,3.1,0,0,1,2.51,1,4.51,4.51,0,0,1,.93,2.19A6.06,6.06,0,0,0,267.43,226.8Z"/><path class="cls-3" d="M296.12,209.53a62.1,62.1,0,0,1-2.13,10q-2.4,8.37-2.78,10.13a25.15,25.15,0,0,1-4.48,9.82q-2.07,2.82-4.8,2.77-2.4-.06-3.57-3a31.35,31.35,0,0,1-2-11.79,85.83,85.83,0,0,1,.75-10,28,28,0,0,1-.05-3.31c0-2.2.85-3.31,2.56-3.31a2.74,2.74,0,0,1,1.14.29c.41.2.81.41,1.2.62,0,1.81,0,4.48-.16,8q-.25,5.66-.26,8.16c0,1.78.05,3.39.15,4.85a33.66,33.66,0,0,0,1,4.27,17.75,17.75,0,0,0,3.52-6.67c.28-.92.85-3.45,1.7-7.57a34.11,34.11,0,0,1,2.3-7.36,10.24,10.24,0,0,0,.63-2.83,10.84,10.84,0,0,1,.65-2.88,2.05,2.05,0,0,1,2-1.28A3,3,0,0,1,296.12,209.53Z"/><path class="cls-3" d="M316.28,211.92a55.68,55.68,0,0,1-5.81,1.87,56,56,0,0,0-5.82,1.87,27.84,27.84,0,0,0-.69,6.18,5.48,5.48,0,0,0,2,.33,18,18,0,0,0,2.5-.27,17.91,17.91,0,0,1,2.51-.27,4.89,4.89,0,0,1,2.56.64,3.9,3.9,0,0,1,.75,1.39.64.64,0,0,1-.38.58,6.87,6.87,0,0,0-.74.75,1.25,1.25,0,0,1-1.07.43,22.88,22.88,0,0,1-4.11.32,12.05,12.05,0,0,0-4,.64,26.44,26.44,0,0,0-1,6.24,5.73,5.73,0,0,0,.43,2.45c1.66,1.18,4.56,1.67,8.69,1.49a1.47,1.47,0,0,0,.9-.39,1.44,1.44,0,0,1,.8-.41q1.5-.31,2,2.25a2.07,2.07,0,0,1-.3,1.57,1.55,1.55,0,0,1-1.3.77,39.79,39.79,0,0,1-11.2-1,5.67,5.67,0,0,1-2.72-1.65,4.83,4.83,0,0,1-1.39-2.88,36.05,36.05,0,0,1,0-8.32c-1-.68-1.44-1.34-1.33-2,0-.32.31-.61.83-.88s.8-.54.88-.82.21-2,.42-5.07c-2-.39-3-1.14-2.93-2.24a2.84,2.84,0,0,1,1.86-2.45l3.42-1.39a24.74,24.74,0,0,1,5-1.81c1.74-.47,3.48-.91,5.22-1.34a3.87,3.87,0,0,1,.64,0,6.85,6.85,0,0,1,3.36,1.12c0,.14.13.41.27.8a3.07,3.07,0,0,1,.22.85A.8.8,0,0,1,316.28,211.92Z"/><path class="cls-3" d="M346.52,220.14a22.14,22.14,0,0,1-3.46,5.81l-2.46,2.45a6.91,6.91,0,0,1-3.09,1.5,13.12,13.12,0,0,0-.21,2.5c0,.68.05,1.7.16,3.07s.16,2.38.16,3a7.68,7.68,0,0,1-1.71,5.44l-1.5-.8a1.68,1.68,0,0,1-1-1.18,51.77,51.77,0,0,1-.53-7.73c0-1.89.11-4.69.32-8.43s.32-6.56.32-8.48a55.75,55.75,0,0,0-.48-7.62c-.28.1-.55-.08-.8-.54s-.46-.73-.64-.8c.18-1.14.48-1.7.91-1.7a8.65,8.65,0,0,1,3.3.1q6.93,1.13,10.46,6.08a6.24,6.24,0,0,1,1.12,3.63A9.06,9.06,0,0,1,346.52,220.14ZM343.06,216a3.24,3.24,0,0,0-1.82-3.36c-.07,0-1.35-.51-3.84-1.55.39,6.55.52,11.13.37,13.77Q342.53,220.41,343.06,216Z"/><path class="cls-3" d="M368.33,227.07q-3.13,7.1-8.9,8.43a6,6,0,0,1-1.39.16q-3,0-6.13-3.31a8.18,8.18,0,0,1-2.08-5.81,18.5,18.5,0,0,1,2.35-8.48,12.89,12.89,0,0,1,2.45-3.31,4.65,4.65,0,0,1,3.14-1.65,2.37,2.37,0,0,1,1.6.64,15.48,15.48,0,0,0,4,1.71,6,6,0,0,1,3.63,2.87,13.76,13.76,0,0,1,1.87,6.14A6.16,6.16,0,0,1,368.33,227.07Zm-4.26-3.3q-.37-3.9-2.08-4.65a1.33,1.33,0,0,0-.48-.1c-.43,0-1,.36-1.6,1.06a5,5,0,0,1-1.66,1.45c-.25.1-.6,0-1.06-.32a2.26,2.26,0,0,0-.91-.48.39.39,0,0,0-.27.1,6.2,6.2,0,0,0-1.86,5,6.89,6.89,0,0,0,1.06,3.9c1,1.45,1.84,2.18,2.51,2.18,1.57,0,3.08-1,4.54-2.93A7.39,7.39,0,0,0,364.07,223.77Z"/><path class="cls-3" d="M390.15,209.53a62.1,62.1,0,0,1-2.13,10q-2.4,8.37-2.78,10.13a25.15,25.15,0,0,1-4.48,9.82q-2.07,2.82-4.8,2.77-2.4-.06-3.57-3a31.35,31.35,0,0,1-2-11.79,85.83,85.83,0,0,1,.75-10,24.65,24.65,0,0,1-.05-3.31c0-2.2.85-3.31,2.56-3.31a2.74,2.74,0,0,1,1.14.29c.41.2.81.41,1.2.62,0,1.81,0,4.48-.16,8-.18,3.77-.26,6.49-.26,8.16s0,3.39.15,4.85a34.91,34.91,0,0,0,1,4.27,17.62,17.62,0,0,0,3.53-6.67c.28-.92.85-3.45,1.7-7.57a34.75,34.75,0,0,1,2.29-7.36,9.79,9.79,0,0,0,.64-2.83,10.84,10.84,0,0,1,.65-2.88,2.05,2.05,0,0,1,2-1.28A3,3,0,0,1,390.15,209.53Z"/><path class="cls-3" d="M413.72,239a.75.75,0,0,1,.16.48c0,.81-.85,1.43-2.56,1.86a61.15,61.15,0,0,1-7-6.72q-4.69-5.07-7-7-.15,1.39-.59,7.26a37.09,37.09,0,0,1-.95,7,2.54,2.54,0,0,0-.67.26,1.34,1.34,0,0,1-.93.16c-1.57-.35-2.35-1.44-2.35-3.25a14.33,14.33,0,0,1,.21-2.13c.14-1,.23-1.68.27-1.93.14-2.05.23-4.51.26-7.36v-5.81a77.54,77.54,0,0,1,.81-12.21q.52-3.32,6.24-3a6.53,6.53,0,0,1,5,2.88,8.84,8.84,0,0,1,2,5.54,8.38,8.38,0,0,1-1.86,5,11.87,11.87,0,0,1-3.95,3.52q-1,.52-1,1.17c0,.47.37,1,1.12,1.66l1.71,1.38s2,1.82,5.86,5.34A26.63,26.63,0,0,1,413.72,239ZM402.47,215a7.43,7.43,0,0,0,.1-1.71,3.87,3.87,0,0,0-.93-2,3.08,3.08,0,0,0-2.48-.91c-.85,0-1.39.27-1.6.8a15.4,15.4,0,0,0-.27,3c0,.46.06,1.65.16,3.57a30.17,30.17,0,0,1,0,3.58C400.41,219.16,402.07,217.05,402.47,215Z"/><path class="cls-3" d="M440.23,232.42c-.08,0-2.16,1.52-6.25,4.45a36.87,36.87,0,0,1-6.34,3.8,1.38,1.38,0,0,1-.64.16,1.76,1.76,0,0,1-1.39-1c-.64-.85-1-1.3-1-1.34a130.72,130.72,0,0,1,.59-13.08q.8-8.92.8-12.87c0-1.82-.08-3.53-.22-5.13a2.36,2.36,0,0,1,1.76-.7c1.35,0,2.13.5,2.35,1.5q.17,4.37-.37,13.09t-.43,13.09a25.47,25.47,0,0,0,3.89-2.24,34.82,34.82,0,0,1,3.79-2.4,6.67,6.67,0,0,0,.93-.1,6,6,0,0,1,1-.11,1.65,1.65,0,0,1,1.55.86A1.7,1.7,0,0,1,440.23,232.42Z"/><path class="cls-3" d="M450.79,204a7.85,7.85,0,0,1,.26,2,13.75,13.75,0,0,1-1.11,4.74q-1.6,4.11-1.82,5c-.85,3.12-2.06,4.69-3.63,4.69a2.33,2.33,0,0,1-.85-.16c-.75-.25-1-.87-.8-1.87s.94-3.34,2.19-7a35.13,35.13,0,0,0,1.65-7.36c.07-.78.78-1.1,2.14-1a7,7,0,0,1,1.22.22A1.13,1.13,0,0,1,450.79,204Z"/><path class="cls-3" d="M473.19,211.92a56,56,0,0,1-5.82,1.87,55.68,55.68,0,0,0-5.81,1.87,27.84,27.84,0,0,0-.69,6.18,5.38,5.38,0,0,0,2,.33,18.06,18.06,0,0,0,2.51-.27,17.76,17.76,0,0,1,2.51-.27,4.83,4.83,0,0,1,2.55.64,3.73,3.73,0,0,1,.75,1.39.63.63,0,0,1-.37.58,6.47,6.47,0,0,0-.75.75,1.25,1.25,0,0,1-1.07.43,22.64,22.64,0,0,1-4.1.32,12,12,0,0,0-4,.64,26.55,26.55,0,0,0-1,6.24,5.73,5.73,0,0,0,.43,2.45c1.67,1.18,4.57,1.67,8.69,1.49a1.47,1.47,0,0,0,.91-.39,1.41,1.41,0,0,1,.8-.41c1-.21,1.65.54,2,2.25a2.11,2.11,0,0,1-.29,1.57,1.57,1.57,0,0,1-1.31.77,39.87,39.87,0,0,1-11.2-1,5.72,5.72,0,0,1-2.72-1.65,4.81,4.81,0,0,1-1.38-2.88,35,35,0,0,1,0-8.32c-1-.68-1.44-1.34-1.34-2,0-.32.31-.61.83-.88s.81-.54.88-.82.21-2,.43-5.07c-2-.39-3-1.14-2.94-2.24a2.76,2.76,0,0,1,1.81-2.4c1.11-.46,2.21-.91,3.31-1.34a69.84,69.84,0,0,1,3.95-6.4q3.57-5.12,4.32-6.29a1,1,0,0,1,.9-.48,2.46,2.46,0,0,1,1.71.85,2.2,2.2,0,0,1,.8,1.66q-.21,3.68-4.16,8.1l3.47-.74a6.88,6.88,0,0,1,3.36,1.12c0,.14.13.41.27.8a3,3,0,0,1,.21.85A.79.79,0,0,1,473.19,211.92Z"/><path class="cls-3" d="M490,226.8c-.35.82-.7,1.64-1,2.46a9.11,9.11,0,0,1-1.39,2.29c-1.1,1.39-2.21,2.76-3.31,4.11a14.8,14.8,0,0,1-3.57,3.41c-.36.43-.75.87-1.17,1.34a1.81,1.81,0,0,1-1.28.69,2.07,2.07,0,0,1-.75-.16l-.93-.37a1.33,1.33,0,0,1-.72-.7c-.11-1.49-.16-3.09-.16-4.8s.07-4.33.21-7.78.21-6,.21-7.79q0-3.47-.26-6.35s-.43-.44-1.18-1.23a1.89,1.89,0,0,1-.69-1.27,1.27,1.27,0,0,1,1.28-1.29c.46-.06.92-.12,1.39-.16a22.73,22.73,0,0,1,9.38,5,11.07,11.07,0,0,1,2.08,2.24,12.82,12.82,0,0,1,2.56,7.09A7.84,7.84,0,0,1,490,226.8Zm-3.84-5.7c-.32-2.24-2.23-4.22-5.71-5.92q-.37,8.91-.21,18.88,6-6,6-11.47A10.67,10.67,0,0,0,486.2,221.1Z"/><path class="cls-3" d="M512.71,209.53a62.32,62.32,0,0,1-2.14,10q-2.4,8.37-2.77,10.13a25.29,25.29,0,0,1-4.48,9.82q-2.08,2.82-4.8,2.77-2.4-.06-3.58-3a31.36,31.36,0,0,1-2-11.79,85.83,85.83,0,0,1,.75-10,22.33,22.33,0,0,1-.06-3.31c0-2.2.86-3.31,2.56-3.31a2.75,2.75,0,0,1,1.15.29c.41.2.81.41,1.2.62q0,2.72-.16,8-.27,5.66-.27,8.16c0,1.78.06,3.39.16,4.85a31.36,31.36,0,0,0,1,4.27,17.48,17.48,0,0,0,3.52-6.67c.29-.92.86-3.45,1.71-7.57a34.18,34.18,0,0,1,2.29-7.36,10.15,10.15,0,0,0,.64-2.83,10.93,10.93,0,0,1,.64-2.88,2.07,2.07,0,0,1,2-1.28A3,3,0,0,1,512.71,209.53Z"/><path class="cls-3" d="M529.14,206.43c0,1-.65,1.57-1.93,1.82a6.34,6.34,0,0,0-3.09,1.11q-6,6.3-6,16.27a26.2,26.2,0,0,0,1.49,8.86c.82,2.27,1.4,3.77,1.76,4.48a8.84,8.84,0,0,0,3.25,3.73c.54.25,1.07.48,1.6.69a1.49,1.49,0,0,1,.86,1.34,2.41,2.41,0,0,1-.56,1.54,1.18,1.18,0,0,1-1.2.54,11.73,11.73,0,0,1-2.14-.7c-1.7-1-3.55-3.11-5.54-6.34-.5-.82-1-1.67-1.52-2.54a12,12,0,0,1-1.15-2.48,67.61,67.61,0,0,1-.91-6.88,32.35,32.35,0,0,1-.21-3.63,24.31,24.31,0,0,1,5.49-16.05q3.21-3.84,6.67-3.84a4.45,4.45,0,0,1,2.72.91A1.39,1.39,0,0,1,529.14,206.43Z"/><path class="cls-3" d="M547.85,236a4.25,4.25,0,0,1,.33,1.49,2.43,2.43,0,0,1-.91,1.87q-.91.8-1.23.75c-1.74-.32-2.84-1.72-3.31-4.22a39.77,39.77,0,0,0-1.76-6.77l-3.62.32a6.07,6.07,0,0,0-3.25,1.28,58.18,58.18,0,0,0-1.55,5.87,39.57,39.57,0,0,1-1.76,5.92c-.29.64-.89.82-1.82.53-1.17-.39-1.79-.92-1.86-1.6a13,13,0,0,1,1.17-5.44,22.73,22.73,0,0,0,1.76-5.54c0-.33-.2-.68-.69-1.07s-.75-.69-.75-.91a.93.93,0,0,1,.24-.56,2.14,2.14,0,0,1,1.12-.48c.59-.12.92-.31,1-.56q1-2.66,3-9.92a92,92,0,0,1,3.14-9.65,1.31,1.31,0,0,1,1.34-.75,2.05,2.05,0,0,1,1.33.48,6.16,6.16,0,0,1,1.92,3.84c.21,1.46.41,2.92.59,4.37A167.77,167.77,0,0,0,547.85,236Zm-7.78-10.19a33.83,33.83,0,0,0-.7-4.42c-.35-1.42-.69-2.84-1-4.27q-1.61,4.42-2.77,8.85A36.43,36.43,0,0,1,540.07,225.84Z"/><path class="cls-3" d="M576.87,205.36c-.32,1.29-.93,2-1.82,2.24q-3.46.85-12,2.25-1.07,13.28-1.07,22.13,0,3.36.11,6.61a4.6,4.6,0,0,1-.11,1.55,1,1,0,0,1-1.06.8,3.31,3.31,0,0,1-2.56-1.31,4.83,4.83,0,0,1-1.12-2.8c-.07-1.31-.11-2.7-.11-4.16,0-2.34.16-6.06.48-11.14.32-4.88.46-8.59.43-11.15a19.66,19.66,0,0,0-4,.27,33.94,33.94,0,0,1-4.05.42,6.42,6.42,0,0,1-4.27-1.4c-.42-.93-.63-1.41-.63-1.45a1.23,1.23,0,0,1,.37-.8,35.46,35.46,0,0,1,7-1.08,19.27,19.27,0,0,0,6.93-1.72,13.31,13.31,0,0,0,4.27.64,17.64,17.64,0,0,0,4.58-.59,26.51,26.51,0,0,0,3.26-.74,9,9,0,0,1,3.2-.33c.64,0,.9.27.8.8C576.39,204.4,576.87,204.73,576.87,205.36Z"/><path class="cls-3" d="M576,211.61c.07,1,.11,2.09.11,3.2q0,3.63-.75,10.93c-.5,4.87-.74,8.55-.74,11,0,.92,0,1.83,0,2.72a1.92,1.92,0,0,1-2.08,1.44c-1.53-.07-2.37-.73-2.51-2a35.43,35.43,0,0,1-.21-3.95,96.85,96.85,0,0,1,.88-10.83,99.26,99.26,0,0,0,.88-10.77c0-.93,0-1.83-.11-2.72a1.88,1.88,0,0,1,1.82-1,4,4,0,0,1,2,.58.65.65,0,0,1,.32-.16c.11,0,.16.18.16.54a2.67,2.67,0,0,0,0,.74A.39.39,0,0,0,576,211.61Z"/><path class="cls-3" d="M597.4,227.07q-3.15,7.1-8.91,8.43a6,6,0,0,1-1.38.16q-3,0-6.14-3.31a8.18,8.18,0,0,1-2.08-5.81,18.5,18.5,0,0,1,2.35-8.48,12.89,12.89,0,0,1,2.45-3.31,4.65,4.65,0,0,1,3.15-1.65,2.4,2.4,0,0,1,1.6.64,15.14,15.14,0,0,0,4,1.71,6,6,0,0,1,3.62,2.87,13.76,13.76,0,0,1,1.87,6.14A6.31,6.31,0,0,1,597.4,227.07Zm-4.27-3.3q-.37-3.9-2.08-4.65a1.33,1.33,0,0,0-.48-.1c-.43,0-1,.36-1.6,1.06a5.13,5.13,0,0,1-1.65,1.45c-.25.1-.61,0-1.07-.32a2.2,2.2,0,0,0-.91-.48.35.35,0,0,0-.26.1,6.17,6.17,0,0,0-1.87,5,6.82,6.82,0,0,0,1.07,3.9c1,1.45,1.83,2.18,2.5,2.18,1.57,0,3.08-1,4.54-2.93A7.39,7.39,0,0,0,593.13,223.77Z"/><path class="cls-3" d="M622.62,206.27q-.74,7.15-1.43,14.35a137.52,137.52,0,0,0-.91,14.24c0,1.24,0,2.47.11,3.68a1.86,1.86,0,0,1-.62,1.49,2.11,2.11,0,0,1-1.52.64c-1.1,0-2-.75-2.77-2.24A185.07,185.07,0,0,1,607,217.52c-.07-.21-.16-.31-.27-.31s-.41.24-.48.74a137.22,137.22,0,0,0-.9,16.06c0,2.7.06,5.45.21,8.26a2.22,2.22,0,0,1-.91,2.14,1.14,1.14,0,0,1-.8.37,2.19,2.19,0,0,1-1-.32l-1-.48c-.47-.14-.75-.57-.86-1.28s-.07-1.16-.1-1.76q-.17-3-.16-6.24,0-5.65.64-14.13,1-12.91,1.12-14.3c0-.78.69-1.17,2-1.17.61-.07,1.49.37,2.67,1.33A82.27,82.27,0,0,1,611.37,217a73.14,73.14,0,0,0,4.37,10.61q.81-7.08,2.51-21.44c.11-.71.62-1.06,1.55-1.06a4.56,4.56,0,0,1,1.12.16c.57.14.9.23,1,.27A1.09,1.09,0,0,1,622.62,206.27Z"/><path class="cls-3" d="M634.31,232.94c-1,5-1.6,7.66-1.71,8.05a38.7,38.7,0,0,1-2.56,7.68,1.29,1.29,0,0,1-1.28.64,4.81,4.81,0,0,1-2.06-.53,1.83,1.83,0,0,1-1.09-1.76,6.27,6.27,0,0,1,.43-2c.25-.6.48-1.2.69-1.81q1.38-5,1.71-6.13a49.22,49.22,0,0,0,1.12-6.3,1.66,1.66,0,0,1,1-1.6,2.5,2.5,0,0,1,1-.21,4,4,0,0,1,2.46.86Q634.84,230.38,634.31,232.94Z"/><path class="cls-3" d="M668,232.42c-.07,0-2.15,1.52-6.24,4.45a36.91,36.91,0,0,1-6.35,3.8,1.38,1.38,0,0,1-.64.16,1.73,1.73,0,0,1-1.38-1c-.64-.85-1-1.3-1-1.34q-.11-4.69.59-13.08.8-8.92.8-12.87,0-2.73-.21-5.13a2.34,2.34,0,0,1,1.76-.7q2,0,2.34,1.5.17,4.37-.37,13.09t-.43,13.09a24.55,24.55,0,0,0,3.89-2.24,36.92,36.92,0,0,1,3.79-2.4,6.92,6.92,0,0,0,.94-.1,5.83,5.83,0,0,1,1-.11,1.65,1.65,0,0,1,1.55.86A1.67,1.67,0,0,1,668,232.42Z"/><path class="cls-3" d="M689,236a4.21,4.21,0,0,1,.32,1.49,2.42,2.42,0,0,1-.9,1.87q-.92.8-1.23.75c-1.74-.32-2.85-1.72-3.31-4.22a40.73,40.73,0,0,0-1.76-6.77l-3.62.32a6.11,6.11,0,0,0-3.26,1.28c-.39,1.11-.9,3.06-1.55,5.87a39.76,39.76,0,0,1-1.75,5.92c-.29.64-.89.82-1.82.53-1.17-.39-1.79-.92-1.86-1.6A13,13,0,0,1,669.4,236a23.68,23.68,0,0,0,1.76-5.54c0-.33-.2-.68-.7-1.07s-.74-.69-.74-.91A.93.93,0,0,1,670,228a2.14,2.14,0,0,1,1.12-.48c.59-.12.91-.31,1-.56q1-2.66,3.05-9.92a92,92,0,0,1,3.14-9.65,1.3,1.3,0,0,1,1.33-.75,2.06,2.06,0,0,1,1.34.48,6.26,6.26,0,0,1,1.92,3.84c.21,1.46.41,2.92.59,4.37A167.77,167.77,0,0,0,689,236Zm-7.79-10.19a32.07,32.07,0,0,0-.69-4.42c-.35-1.42-.69-2.84-1-4.27q-1.61,4.42-2.77,8.85A36.34,36.34,0,0,1,681.18,225.84Z"/><path class="cls-3" d="M728.38,204.73a3.11,3.11,0,0,1-.67,1.94,2.75,2.75,0,0,1-1.73,1.09,1.77,1.77,0,0,1-1.17-.24,2.41,2.41,0,0,0-1.18-.29,20.2,20.2,0,0,0-5.76,1.66c-2.87,1.21-4.76,1.93-5.65,2.18q-.21,3.36-.21,6.83t.21,6.93a3.84,3.84,0,0,0,.91.11,15.94,15.94,0,0,0,3.84-.86,11.19,11.19,0,0,1,4-.58c.78.07,1.14.37,1.06.9a4.23,4.23,0,0,1-2.66,3.2c-1.46.47-2.92,1-4.37,1.45-.57.07-1.5.25-2.78.53-.07.71-.11,1.51-.11,2.4s0,2.15.14,3.89.13,3,.13,3.9a15.37,15.37,0,0,1-1.44,7.25,1,1,0,0,1-1,.59,2.1,2.1,0,0,1-1.33-.59,2.85,2.85,0,0,1-.91-1.28,12.68,12.68,0,0,1-.53-3.84c0-.5.12-2.22.37-5.18a19.82,19.82,0,0,0-.1-5.17,1.61,1.61,0,0,0-1.07-1.12,5.92,5.92,0,0,1-1.55-.85,5.94,5.94,0,0,1,.11-2.14,1.11,1.11,0,0,0,1.09-.42,1.21,1.21,0,0,1,.88-.53,1.54,1.54,0,0,1,.43,0,29.15,29.15,0,0,0,.53-5.87q0-1.12-.42-8.26a4.55,4.55,0,0,1-2-1.26,2.84,2.84,0,0,1-1-2c0-.88.64-1.42,1.92-1.6a68.61,68.61,0,0,0,9.65-2.66,35.34,35.34,0,0,1,9.92-2.08,2.9,2.9,0,0,1,1.68.5A1.6,1.6,0,0,1,728.38,204.73Z"/><path class="cls-3" d="M743.47,227.07q-3.13,7.1-8.9,8.43a6,6,0,0,1-1.39.16q-3,0-6.13-3.31a8.18,8.18,0,0,1-2.08-5.81,18.5,18.5,0,0,1,2.35-8.48,12.89,12.89,0,0,1,2.45-3.31,4.65,4.65,0,0,1,3.15-1.65,2.4,2.4,0,0,1,1.6.64,15.18,15.18,0,0,0,4,1.71,6,6,0,0,1,3.63,2.87,13.76,13.76,0,0,1,1.87,6.14A6.16,6.16,0,0,1,743.47,227.07Zm-4.26-3.3q-.37-3.9-2.08-4.65a1.33,1.33,0,0,0-.48-.1c-.43,0-1,.36-1.6,1.06a5,5,0,0,1-1.66,1.45c-.24.1-.6,0-1.06-.32a2.26,2.26,0,0,0-.91-.48.39.39,0,0,0-.27.1,6.2,6.2,0,0,0-1.86,5,6.82,6.82,0,0,0,1.07,3.9c1,1.45,1.83,2.18,2.5,2.18,1.57,0,3.08-1,4.54-2.93A7.39,7.39,0,0,0,739.21,223.77Z"/><path class="cls-3" d="M767.85,239a.75.75,0,0,1,.16.48c0,.81-.85,1.43-2.56,1.86a61.15,61.15,0,0,1-7-6.72q-4.7-5.07-7-7-.15,1.39-.59,7.26a37.09,37.09,0,0,1-1,7,2.42,2.42,0,0,0-.67.26,1.34,1.34,0,0,1-.93.16c-1.57-.35-2.35-1.44-2.35-3.25a14.33,14.33,0,0,1,.21-2.13c.14-1,.23-1.68.27-1.93.14-2.05.23-4.51.26-7.36v-5.81a77.54,77.54,0,0,1,.81-12.21q.53-3.32,6.24-3a6.53,6.53,0,0,1,5,2.88,8.84,8.84,0,0,1,2,5.54,8.38,8.38,0,0,1-1.86,5,11.87,11.87,0,0,1-4,3.52q-1,.52-1,1.17c0,.47.37,1,1.12,1.66l1.7,1.38,5.87,5.34A26.89,26.89,0,0,1,767.85,239ZM756.6,215a7.43,7.43,0,0,0,.1-1.71,3.87,3.87,0,0,0-.93-2,3.08,3.08,0,0,0-2.48-.91c-.85,0-1.39.27-1.6.8a15.4,15.4,0,0,0-.27,3c0,.46.06,1.65.16,3.57a30.17,30.17,0,0,1,0,3.58C754.53,219.16,756.2,217.05,756.6,215Z"/><path class="cls-3" d="M791.64,239.5c.14.71-.38,1.1-1.55,1.17a3.44,3.44,0,0,1-2.4-1,6.16,6.16,0,0,1-1.6-2.94,22.43,22.43,0,0,1-.64-5.27,40.06,40.06,0,0,0-.37-5.28q-.69,2.4-2.3,7.14c-.64,1.75-1,2.74-1.17,3-.57,1.1-1.28,1.6-2.13,1.49a6,6,0,0,1-4-2.88,18.23,18.23,0,0,1-1.71-4.75,27.33,27.33,0,0,0-1.44-4.79q-2.29,11.15-4.9,16.64c-.25.53-1,.49-2.24-.11a2.33,2.33,0,0,1-1.55-2.13,18.41,18.41,0,0,1,1.12-3.42q.48-1.28,3.73-12.32a100.52,100.52,0,0,0,2.35-13.49,6.13,6.13,0,0,0,.53-1.12,1,1,0,0,1,1-.75,3.59,3.59,0,0,1,2.51.69,38.31,38.31,0,0,0,.51,5,40,40,0,0,1,.5,5.2c.32,2,.63,4,.91,6a13.61,13.61,0,0,0,2.13,5.6q5.13-14.25,6.51-22.51c.14-.56.67-.85,1.6-.85,1.32,0,2.06.43,2.24,1.28a23.32,23.32,0,0,1,.37,4.42c0,.54,0,1.71-.1,3.53q-.06,2.17,0,3.57A118.34,118.34,0,0,0,791.64,239.5Z"/><path class="cls-3" d="M813.77,236a4.45,4.45,0,0,1,.32,1.49,2.4,2.4,0,0,1-.91,1.87q-.9.8-1.23.75c-1.74-.32-2.84-1.72-3.3-4.22a41.74,41.74,0,0,0-1.76-6.77l-3.63.32a6.07,6.07,0,0,0-3.25,1.28,58.18,58.18,0,0,0-1.55,5.87,39.57,39.57,0,0,1-1.76,5.92c-.28.64-.89.82-1.81.53-1.18-.39-1.8-.92-1.87-1.6A12.93,12.93,0,0,1,794.2,236a23,23,0,0,0,1.75-5.54c0-.33-.19-.68-.69-1.07s-.75-.69-.75-.91a.93.93,0,0,1,.24-.56,2.22,2.22,0,0,1,1.13-.48c.58-.12.91-.31,1-.56q1-2.66,3-9.92a89.35,89.35,0,0,1,3.15-9.65,1.29,1.29,0,0,1,1.33-.75,2.08,2.08,0,0,1,1.34.48,6.2,6.2,0,0,1,1.91,3.84c.22,1.46.41,2.92.59,4.37A169.37,169.37,0,0,0,813.77,236ZM806,225.84a33.67,33.67,0,0,0-.69-4.42c-.36-1.42-.7-2.84-1-4.27-1.06,2.95-2,5.9-2.77,8.85A36.55,36.55,0,0,1,806,225.84Z"/><path class="cls-3" d="M842.79,205.36c-.33,1.29-.93,2-1.82,2.24q-3.47.85-12.05,2.25-1.06,13.28-1.07,22.13,0,3.36.11,6.61a4.88,4.88,0,0,1-.11,1.55,1,1,0,0,1-1.07.8,3.33,3.33,0,0,1-2.56-1.31,4.81,4.81,0,0,1-1.11-2.8c-.08-1.31-.11-2.7-.11-4.16,0-2.34.16-6.06.48-11.14.32-4.88.46-8.59.43-11.15a19.66,19.66,0,0,0-4,.27,33.94,33.94,0,0,1-4,.42,6.4,6.4,0,0,1-4.27-1.4c-.42-.93-.64-1.41-.64-1.45a1.25,1.25,0,0,1,.38-.8,35.32,35.32,0,0,1,7-1.08,19.28,19.28,0,0,0,6.94-1.72,13.29,13.29,0,0,0,4.26.64,17.71,17.71,0,0,0,4.59-.59,26.11,26.11,0,0,0,3.25-.74,9,9,0,0,1,3.21-.33c.64,0,.9.27.8.8C842.3,204.4,842.79,204.73,842.79,205.36Z"/><path class="cls-3" d="M841.93,211.61c.07,1,.11,2.09.11,3.2q0,3.63-.75,10.93c-.5,4.87-.74,8.55-.74,11,0,.92,0,1.83.05,2.72a1.92,1.92,0,0,1-2.08,1.44c-1.53-.07-2.37-.73-2.51-2a35.43,35.43,0,0,1-.21-3.95,96.85,96.85,0,0,1,.88-10.83,99.26,99.26,0,0,0,.88-10.77c0-.93,0-1.83-.11-2.72a1.87,1.87,0,0,1,1.81-1,4,4,0,0,1,2,.58.62.62,0,0,1,.32-.16c.11,0,.16.18.16.54a2.67,2.67,0,0,0,0,.74A.39.39,0,0,0,841.93,211.61Z"/><path class="cls-3" d="M863.26,227.07q-3.15,7.1-8.91,8.43a5.91,5.91,0,0,1-1.38.16c-2,0-4.07-1.1-6.14-3.31a8.22,8.22,0,0,1-2.07-5.81,18.61,18.61,0,0,1,2.34-8.48,12.92,12.92,0,0,1,2.46-3.31,4.65,4.65,0,0,1,3.14-1.65,2.4,2.4,0,0,1,1.6.64,15.31,15.31,0,0,0,4,1.71,6,6,0,0,1,3.63,2.87,13.89,13.89,0,0,1,1.87,6.14A6.16,6.16,0,0,1,863.26,227.07Zm-4.27-3.3q-.37-3.9-2.08-4.65a1.28,1.28,0,0,0-.47-.1c-.43,0-1,.36-1.6,1.06a5.24,5.24,0,0,1-1.66,1.45c-.25.1-.61,0-1.06-.32a2.32,2.32,0,0,0-.91-.48.36.36,0,0,0-.27.1,6.2,6.2,0,0,0-1.87,5,6.9,6.9,0,0,0,1.07,3.9c1,1.45,1.83,2.18,2.51,2.18,1.56,0,3.07-1,4.53-2.93A7.34,7.34,0,0,0,859,223.77Z"/><path class="cls-3" d="M888.49,206.27q-.75,7.15-1.44,14.35a140.38,140.38,0,0,0-.91,14.24c0,1.24,0,2.47.11,3.68a1.83,1.83,0,0,1-.62,1.49,2.11,2.11,0,0,1-1.52.64c-1.1,0-2-.75-2.77-2.24a189,189,0,0,1-8.48-20.91c-.07-.21-.16-.31-.27-.31s-.4.24-.47.74a135,135,0,0,0-.91,16.06q0,4.05.21,8.26a2.2,2.2,0,0,1-.9,2.14,1.16,1.16,0,0,1-.8.37,2.15,2.15,0,0,1-1-.32l-1-.48c-.46-.14-.74-.57-.85-1.28s-.07-1.16-.11-1.76q-.16-3-.16-6.24,0-5.65.64-14.13,1-12.91,1.12-14.3c0-.78.69-1.17,2-1.17.6-.07,1.49.37,2.66,1.33A83.48,83.48,0,0,1,877.24,217a72,72,0,0,0,4.37,10.61q.79-7.08,2.5-21.44c.11-.71.63-1.06,1.55-1.06a4.49,4.49,0,0,1,1.12.16q.86.21,1,.27A1.13,1.13,0,0,1,888.49,206.27Z"/><path class="cls-3" d="M900.17,232.94q-1.54,7.47-1.71,8.05a38.07,38.07,0,0,1-2.56,7.68,1.28,1.28,0,0,1-1.28.64,4.77,4.77,0,0,1-2-.53,1.84,1.84,0,0,1-1.1-1.76,6.57,6.57,0,0,1,.43-2c.25-.6.48-1.2.7-1.81q1.38-5,1.7-6.13a47.53,47.53,0,0,0,1.12-6.3,1.66,1.66,0,0,1,1-1.6,2.55,2.55,0,0,1,1-.21,3.93,3.93,0,0,1,2.45.86Q900.7,230.38,900.17,232.94Z"/><path class="cls-3" d="M198.37,285.75q-.1.06-6.24,4.45a36.41,36.41,0,0,1-6.35,3.81,1.51,1.51,0,0,1-.64.16,1.78,1.78,0,0,1-1.39-1c-.63-.86-1-1.3-1-1.34q-.11-4.69.59-13.09c.53-5.94.8-10.24.8-12.87,0-1.82-.07-3.52-.21-5.13a2.37,2.37,0,0,1,1.76-.69c1.35,0,2.13.5,2.34,1.49q.16,4.37-.37,13.09t-.43,13.1a26.76,26.76,0,0,0,3.89-2.24,36.92,36.92,0,0,1,3.79-2.4,7.46,7.46,0,0,0,.94-.11,7.15,7.15,0,0,1,1-.11,1.65,1.65,0,0,1,1.55.86A1.67,1.67,0,0,1,198.37,285.75Z"/><path class="cls-3" d="M219.38,289.37a4.17,4.17,0,0,1,.32,1.49,2.43,2.43,0,0,1-.9,1.87c-.61.53-1,.78-1.23.74-1.74-.31-2.85-1.72-3.31-4.21a40.73,40.73,0,0,0-1.76-6.77l-3.62.32a6,6,0,0,0-3.26,1.28c-.39,1.1-.9,3.06-1.55,5.86a39.39,39.39,0,0,1-1.75,5.92c-.29.64-.9.82-1.82.54-1.17-.4-1.79-.93-1.87-1.6a13.19,13.19,0,0,1,1.18-5.44,23.86,23.86,0,0,0,1.76-5.55c0-.32-.2-.68-.7-1.07s-.74-.69-.74-.9a.88.88,0,0,1,.24-.56,2,2,0,0,1,1.12-.48c.59-.13.91-.31,1-.56q1-2.67,3.05-9.92a91.57,91.57,0,0,1,3.14-9.66,1.31,1.31,0,0,1,1.33-.74,2.06,2.06,0,0,1,1.34.48,6.23,6.23,0,0,1,1.92,3.84c.21,1.45.41,2.91.59,4.37A168.26,168.26,0,0,0,219.38,289.37Zm-7.79-10.19a32.42,32.42,0,0,0-.69-4.43c-.36-1.42-.69-2.84-1-4.26q-1.6,4.42-2.77,8.85A34.18,34.18,0,0,1,211.59,279.18Z"/><path class="cls-3" d="M250.32,273.47a22,22,0,0,1-3.47,5.82l-2.45,2.45a6.86,6.86,0,0,1-3.1,1.49,13.15,13.15,0,0,0-.21,2.51c0,.68,0,1.7.16,3.07s.16,2.37.16,3a7.67,7.67,0,0,1-1.71,5.44l-1.49-.8a1.67,1.67,0,0,1-1-1.17,50.53,50.53,0,0,1-.54-7.74q0-2.82.32-8.42c.22-3.74.32-6.56.32-8.48a55.8,55.8,0,0,0-.48-7.63c-.28.11-.55-.07-.8-.53s-.46-.73-.64-.8c.18-1.14.48-1.71.91-1.71a8.77,8.77,0,0,1,3.31.11q6.93,1.11,10.45,6.08a6.19,6.19,0,0,1,1.12,3.62A9.17,9.17,0,0,1,250.32,273.47Zm-3.47-4.1A3.23,3.23,0,0,0,245,266c-.06,0-1.35-.52-3.83-1.55q.59,9.81.37,13.76Q246.31,273.74,246.85,269.37Z"/><path class="cls-3" d="M275.7,292.3a.75.75,0,0,1,.16.48c0,.82-.85,1.44-2.56,1.87a63.84,63.84,0,0,1-7-6.72q-4.69-5.07-7-7-.16,1.38-.59,7.25a37.68,37.68,0,0,1-1,7,2.78,2.78,0,0,0-.67.27,1.4,1.4,0,0,1-.93.16c-1.57-.36-2.35-1.44-2.35-3.26a14.45,14.45,0,0,1,.21-2.13c.15-1,.23-1.67.27-1.92q.21-3.09.27-7.36v-5.81a77.72,77.72,0,0,1,.8-12.22q.53-3.3,6.24-3a6.53,6.53,0,0,1,5,2.88,8.9,8.9,0,0,1,2,5.55,8.39,8.39,0,0,1-1.87,5,11.65,11.65,0,0,1-3.95,3.52c-.64.36-1,.75-1,1.18s.37,1,1.12,1.65l1.71,1.39,5.86,5.33A27.08,27.08,0,0,1,275.7,292.3Zm-11.25-23.95a7.34,7.34,0,0,0,.1-1.7,3.86,3.86,0,0,0-.93-2,3.1,3.1,0,0,0-2.48-.91c-.85,0-1.39.27-1.6.8a15.52,15.52,0,0,0-.26,3c0,.47.05,1.66.16,3.58a30,30,0,0,1,0,3.57Q263.87,271.4,264.45,268.35Z"/><path class="cls-3" d="M291.54,265.26a57.34,57.34,0,0,1-5.81,1.87,54.89,54.89,0,0,0-5.81,1.87,26.93,26.93,0,0,0-.7,6.18,5.71,5.71,0,0,0,2,.32,18,18,0,0,0,2.5-.27,19.31,19.31,0,0,1,2.51-.26,4.84,4.84,0,0,1,2.56.64,3.72,3.72,0,0,1,.75,1.38.66.66,0,0,1-.38.59,6.87,6.87,0,0,0-.74.75,1.21,1.21,0,0,1-1.07.42,22,22,0,0,1-4.11.32,12.05,12.05,0,0,0-4,.64,27.05,27.05,0,0,0-1,6.24,5.78,5.78,0,0,0,.43,2.46c1.67,1.17,4.56,1.67,8.69,1.49a1.47,1.47,0,0,0,.91-.4,1.35,1.35,0,0,1,.8-.4c1-.21,1.65.53,2,2.24a2.1,2.1,0,0,1-.29,1.57,1.61,1.61,0,0,1-1.31.78,39.8,39.8,0,0,1-11.2-1,5.67,5.67,0,0,1-2.72-1.65,4.77,4.77,0,0,1-1.39-2.88,36.06,36.06,0,0,1,0-8.32c-1-.68-1.44-1.33-1.33-2,0-.32.31-.62.83-.88s.8-.55.88-.83.21-2,.42-5.07c-2-.39-3-1.13-2.93-2.24a2.75,2.75,0,0,1,1.81-2.4c1.1-.46,2.21-.9,3.31-1.33a65.21,65.21,0,0,1,4-6.4q3.57-5.12,4.32-6.29a1,1,0,0,1,.9-.48,2.46,2.46,0,0,1,1.71.85,2.18,2.18,0,0,1,.8,1.65q-.21,3.69-4.16,8.11l3.46-.75a7,7,0,0,1,3.37,1.12,7.33,7.33,0,0,0,.26.8,3,3,0,0,1,.22.86A.82.82,0,0,1,291.54,265.26Z"/><path class="cls-3" d="M316.61,261.31a127.55,127.55,0,0,0-5.92,14.56,91,91,0,0,0-2.67,10.4,72.18,72.18,0,0,1-2.88,10.51,1.45,1.45,0,0,1-1.12.54,3.73,3.73,0,0,1-1.92-.81,121.47,121.47,0,0,1-4.85-16.32A94,94,0,0,0,292,263.71c.46-.88.85-1.33,1.18-1.33a1.55,1.55,0,0,1,.85-.27c.57,0,1.56.54,3,1.6a80.37,80.37,0,0,1,3.69,10.72q1.38,5.51,2.82,10.94,2-6.51,3.95-13.07a110.66,110.66,0,0,1,4.8-12.69,2.24,2.24,0,0,1,2.77-.91,1.24,1.24,0,0,1,.54.4,1.08,1.08,0,0,0,.8.37c.32,0,.47.28.47.78A2.3,2.3,0,0,1,316.61,261.31Z"/><path class="cls-3" d="M336.18,265.26a57.34,57.34,0,0,1-5.81,1.87,54.89,54.89,0,0,0-5.81,1.87,26.93,26.93,0,0,0-.7,6.18,5.71,5.71,0,0,0,2,.32,18,18,0,0,0,2.5-.27,19.31,19.31,0,0,1,2.51-.26,4.84,4.84,0,0,1,2.56.64,3.72,3.72,0,0,1,.75,1.38.66.66,0,0,1-.38.59,6.87,6.87,0,0,0-.74.75,1.21,1.21,0,0,1-1.07.42,22,22,0,0,1-4.11.32,12.05,12.05,0,0,0-4,.64,27.05,27.05,0,0,0-1,6.24,5.78,5.78,0,0,0,.43,2.46c1.67,1.17,4.56,1.67,8.69,1.49a1.47,1.47,0,0,0,.91-.4,1.35,1.35,0,0,1,.8-.4c1-.21,1.65.53,2,2.24a2.1,2.1,0,0,1-.29,1.57,1.61,1.61,0,0,1-1.31.78,39.76,39.76,0,0,1-11.2-1,5.67,5.67,0,0,1-2.72-1.65,4.77,4.77,0,0,1-1.39-2.88,36.06,36.06,0,0,1,0-8.32c-1-.68-1.44-1.33-1.33-2,0-.32.31-.62.83-.88s.8-.55.88-.83.21-2,.42-5.07c-2-.39-3-1.13-2.93-2.24a2.85,2.85,0,0,1,1.86-2.45l3.42-1.39a25.38,25.38,0,0,1,5-1.81c1.74-.46,3.48-.91,5.23-1.33a2.86,2.86,0,0,1,.63-.06,6.92,6.92,0,0,1,3.36,1.12c0,.15.13.41.27.8a3,3,0,0,1,.22.86A.82.82,0,0,1,336.18,265.26Z"/><path class="cls-3" d="M360.24,259.61q-.75,7.14-1.44,14.34a137.68,137.68,0,0,0-.91,14.24c0,1.25,0,2.47.11,3.68a1.89,1.89,0,0,1-.62,1.5,2.15,2.15,0,0,1-1.52.64c-1.1,0-2-.75-2.77-2.24a188.64,188.64,0,0,1-8.48-20.91c-.07-.21-.16-.32-.27-.32s-.41.25-.48.75a136.92,136.92,0,0,0-.9,16q0,4.05.21,8.27a2.2,2.2,0,0,1-.91,2.13,1.12,1.12,0,0,1-.8.38,2.1,2.1,0,0,1-1-.33l-1-.47c-.46-.15-.75-.57-.85-1.29,0-.57-.08-1.15-.11-1.76q-.16-3-.16-6.23,0-5.66.64-14.14,1-12.9,1.12-14.29c0-.78.69-1.18,2-1.18.61-.07,1.5.38,2.67,1.34A81.66,81.66,0,0,1,349,270.33a74.12,74.12,0,0,0,4.37,10.61q.81-7.1,2.51-21.44c.11-.71.63-1.07,1.55-1.07a5.1,5.1,0,0,1,1.12.16c.57.14.91.24,1,.27A1.12,1.12,0,0,1,360.24,259.61Z"/><path class="cls-3" d="M390.1,258.7c-.32,1.28-.92,2-1.81,2.24q-3.46.85-12.05,2.24-1.07,13.27-1.07,22.13c0,2.24,0,4.45.11,6.62a4.81,4.81,0,0,1-.11,1.54,1,1,0,0,1-1.07.8,3.32,3.32,0,0,1-2.56-1.3,5,5,0,0,1-1.12-2.8c-.07-1.32-.1-2.71-.1-4.16,0-2.35.15-6.07.47-11.15q.49-7.31.43-11.15a19.57,19.57,0,0,0-4,.27,35,35,0,0,1-4.05.43,6.4,6.4,0,0,1-4.27-1.4c-.42-.93-.64-1.42-.64-1.45a1.3,1.3,0,0,1,.38-.81,36.22,36.22,0,0,1,7-1.07,19.52,19.52,0,0,0,6.94-1.73,13,13,0,0,0,4.26.64,17.71,17.71,0,0,0,4.59-.58,29.29,29.29,0,0,0,3.25-.75,8.92,8.92,0,0,1,3.2-.32c.64,0,.91.27.8.8Q390.1,257.74,390.1,258.7Z"/><path class="cls-3" d="M389.25,264.94c.07,1,.11,2.1.11,3.2q0,3.63-.75,10.93c-.5,4.87-.75,8.56-.75,11,0,.93,0,1.84.05,2.72a1.89,1.89,0,0,1-2.07,1.44c-1.54-.07-2.37-.72-2.51-2a35.36,35.36,0,0,1-.22-3.95,99.4,99.4,0,0,1,.88-10.82,96.69,96.69,0,0,0,.88-10.78c0-.92,0-1.83-.1-2.71a1.87,1.87,0,0,1,1.81-1,4,4,0,0,1,2,.59.62.62,0,0,1,.32-.16c.11,0,.16.18.16.53a2.06,2.06,0,0,0,0,.75A.35.35,0,0,0,389.25,264.94Z"/><path class="cls-3" d="M410.64,280.41q-3.15,7.09-8.91,8.42a6,6,0,0,1-1.39.17c-2,0-4.07-1.11-6.13-3.31a8.19,8.19,0,0,1-2.08-5.81,18.54,18.54,0,0,1,2.35-8.49,12.66,12.66,0,0,1,2.45-3.3,4.67,4.67,0,0,1,3.15-1.66,2.45,2.45,0,0,1,1.6.64,14.47,14.47,0,0,0,4,1.71,6,6,0,0,1,3.62,2.88,13.73,13.73,0,0,1,1.87,6.13A6.35,6.35,0,0,1,410.64,280.41Zm-4.27-3.31q-.37-3.89-2.08-4.64a1.33,1.33,0,0,0-.48-.1c-.43,0-1,.35-1.6,1.06a5,5,0,0,1-1.66,1.44c-.24.11-.6,0-1.06-.32a2.34,2.34,0,0,0-.91-.48.36.36,0,0,0-.26.11,6.16,6.16,0,0,0-1.87,5,6.79,6.79,0,0,0,1.07,3.89c1,1.46,1.83,2.19,2.5,2.19q2.36,0,4.54-2.93A7.41,7.41,0,0,0,406.37,277.1Z"/><path class="cls-3" d="M435.86,259.61q-.75,7.14-1.44,14.34a140.55,140.55,0,0,0-.91,14.24c0,1.25,0,2.47.11,3.68a1.85,1.85,0,0,1-.61,1.5,2.17,2.17,0,0,1-1.52.64c-1.11,0-2-.75-2.78-2.24a190.65,190.65,0,0,1-8.48-20.91c-.07-.21-.16-.32-.26-.32q-.37,0-.48.75a134.73,134.73,0,0,0-.91,16q0,4.05.21,8.27a2.18,2.18,0,0,1-.9,2.13,1.14,1.14,0,0,1-.8.38,2.1,2.1,0,0,1-1-.33l-1-.47c-.46-.15-.74-.57-.85-1.29,0-.57-.07-1.15-.11-1.76-.1-2-.16-4.07-.16-6.23q0-5.66.64-14.14,1-12.9,1.12-14.29c0-.78.7-1.18,2-1.18.6-.07,1.49.38,2.66,1.34a81.36,81.36,0,0,1,4.22,10.56A73,73,0,0,0,429,280.94q.79-7.1,2.51-21.44c.1-.71.62-1.07,1.54-1.07a5,5,0,0,1,1.12.16c.57.14.91.24,1,.27A1.12,1.12,0,0,1,435.86,259.61Z"/><path class="cls-3" d="M470.79,265.26a57.34,57.34,0,0,1-5.81,1.87,54.89,54.89,0,0,0-5.81,1.87,28.17,28.17,0,0,0-.7,6.18,5.71,5.71,0,0,0,2,.32,18.06,18.06,0,0,0,2.51-.27,19,19,0,0,1,2.5-.26,4.84,4.84,0,0,1,2.56.64,3.72,3.72,0,0,1,.75,1.38.66.66,0,0,1-.38.59,6.87,6.87,0,0,0-.74.75,1.21,1.21,0,0,1-1.07.42,22,22,0,0,1-4.11.32,12.05,12.05,0,0,0-4,.64,27.05,27.05,0,0,0-1,6.24,5.78,5.78,0,0,0,.43,2.46c1.67,1.17,4.56,1.67,8.69,1.49a1.45,1.45,0,0,0,.91-.4,1.35,1.35,0,0,1,.8-.4c1-.21,1.65.53,2,2.24a2.1,2.1,0,0,1-.29,1.57,1.6,1.6,0,0,1-1.31.78,39.84,39.84,0,0,1-11.2-1,5.72,5.72,0,0,1-2.72-1.65,4.77,4.77,0,0,1-1.39-2.88,36.06,36.06,0,0,1,0-8.32c-1-.68-1.44-1.33-1.33-2,0-.32.31-.62.83-.88s.81-.55.88-.83.21-2,.42-5.07c-2-.39-3-1.13-2.93-2.24a2.88,2.88,0,0,1,1.87-2.45L456.5,265a25.62,25.62,0,0,1,5-1.81c1.74-.46,3.49-.91,5.23-1.33a2.9,2.9,0,0,1,.64-.06,7,7,0,0,1,3.36,1.12,6.08,6.08,0,0,0,.27.8,2.93,2.93,0,0,1,.21.86A.82.82,0,0,1,470.79,265.26Z"/><path class="cls-3" d="M499.12,258.7c-.33,1.28-.93,2-1.82,2.24q-3.46.85-12.05,2.24-1.06,13.27-1.07,22.13,0,3.36.11,6.62a4.81,4.81,0,0,1-.11,1.54,1,1,0,0,1-1.07.8,3.32,3.32,0,0,1-2.56-1.3,4.87,4.87,0,0,1-1.11-2.8c-.08-1.32-.11-2.71-.11-4.16q0-3.52.48-11.15.48-7.31.43-11.15a19.66,19.66,0,0,0-4,.27,34.62,34.62,0,0,1-4.05.43,6.4,6.4,0,0,1-4.27-1.4c-.42-.93-.64-1.42-.64-1.45a1.3,1.3,0,0,1,.38-.81,36.52,36.52,0,0,1,7-1.07,19.46,19.46,0,0,0,6.94-1.73,13,13,0,0,0,4.26.64,17.71,17.71,0,0,0,4.59-.58,29.29,29.29,0,0,0,3.25-.75,9,9,0,0,1,3.21-.32c.64,0,.9.27.8.8C498.63,257.74,499.12,258.06,499.12,258.7Z"/><path class="cls-3" d="M521.2,285.75c-.07,0-2.16,1.52-6.24,4.45a36.41,36.41,0,0,1-6.35,3.81,1.51,1.51,0,0,1-.64.16,1.78,1.78,0,0,1-1.39-1c-.64-.86-1-1.3-1-1.34a131,131,0,0,1,.59-13.09c.53-5.94.8-10.24.8-12.87,0-1.82-.08-3.52-.22-5.13a2.4,2.4,0,0,1,1.76-.69c1.35,0,2.13.5,2.35,1.49q.16,4.37-.37,13.09t-.43,13.1a27.3,27.3,0,0,0,3.89-2.24,35.84,35.84,0,0,1,3.79-2.4,7.17,7.17,0,0,0,.93-.11,7.42,7.42,0,0,1,1-.11,1.65,1.65,0,0,1,1.55.86A1.7,1.7,0,0,1,521.2,285.75Z"/><path class="cls-3" d="M531.76,257.37a8.23,8.23,0,0,1,.26,2,13.67,13.67,0,0,1-1.12,4.75c-1.06,2.74-1.67,4.39-1.81,5q-1.27,4.69-3.63,4.69a2.33,2.33,0,0,1-.85-.16c-.75-.25-1-.87-.8-1.86s.94-3.35,2.19-7a35.27,35.27,0,0,0,1.65-7.36c.07-.79.78-1.1,2.13-1a7.29,7.29,0,0,1,1.23.21A1.13,1.13,0,0,1,531.76,257.37Z"/><path class="cls-3" d="M555,289.37a4.4,4.4,0,0,1,.32,1.49,2.41,2.41,0,0,1-.91,1.87c-.6.53-1,.78-1.23.74-1.74-.31-2.84-1.72-3.3-4.21a41.74,41.74,0,0,0-1.76-6.77l-3.63.32a6,6,0,0,0-3.25,1.28A57.78,57.78,0,0,0,539.7,290a39.2,39.2,0,0,1-1.76,5.92c-.29.64-.89.82-1.81.54-1.18-.4-1.8-.93-1.87-1.6a13,13,0,0,1,1.17-5.44,22.9,22.9,0,0,0,1.76-5.55c0-.32-.19-.68-.69-1.07s-.75-.69-.75-.9a.88.88,0,0,1,.24-.56,2,2,0,0,1,1.12-.48c.59-.13.92-.31,1-.56q1-2.67,3-9.92a88.91,88.91,0,0,1,3.15-9.66,1.3,1.3,0,0,1,1.33-.74,2,2,0,0,1,1.33.48,6.13,6.13,0,0,1,1.92,3.84c.22,1.45.41,2.91.59,4.37A169.87,169.87,0,0,0,555,289.37Zm-7.79-10.19a34.05,34.05,0,0,0-.69-4.43q-.54-2.13-1-4.26c-1.06,2.95-2,5.9-2.77,8.85A34.48,34.48,0,0,1,547.22,279.18Z"/><path class="cls-3" d="M576.34,262.86a61.88,61.88,0,0,1-2.13,10c-1.6,5.59-2.53,9-2.78,10.14a25,25,0,0,1-4.48,9.81q-2.07,2.82-4.8,2.78-2.4-.06-3.57-3.05a31.33,31.33,0,0,1-2-11.78,86,86,0,0,1,.75-10,24.35,24.35,0,0,1,0-3.3c0-2.21.85-3.31,2.56-3.31a2.6,2.6,0,0,1,1.14.29c.41.19.81.4,1.2.61,0,1.82,0,4.48-.16,8q-.25,5.65-.26,8.16,0,2.67.15,4.86a34.89,34.89,0,0,0,1,4.26,17.65,17.65,0,0,0,3.53-6.66c.28-.93.85-3.45,1.7-7.58a34.3,34.3,0,0,1,2.3-7.36,10.14,10.14,0,0,0,.63-2.82,10.84,10.84,0,0,1,.65-2.88,2,2,0,0,1,2-1.28A3,3,0,0,1,576.34,262.86Z"/><path class="cls-3" d="M605,258.7c-.33,1.28-.93,2-1.82,2.24q-3.47.85-12.05,2.24-1.06,13.27-1.07,22.13,0,3.36.11,6.62a4.81,4.81,0,0,1-.11,1.54,1,1,0,0,1-1.07.8,3.32,3.32,0,0,1-2.56-1.3,4.87,4.87,0,0,1-1.11-2.8c-.08-1.32-.11-2.71-.11-4.16q0-3.52.48-11.15.48-7.31.43-11.15a19.66,19.66,0,0,0-4,.27,34.62,34.62,0,0,1-4,.43,6.4,6.4,0,0,1-4.27-1.4c-.42-.93-.64-1.42-.64-1.45a1.3,1.3,0,0,1,.38-.81,36.52,36.52,0,0,1,7-1.07,19.46,19.46,0,0,0,6.94-1.73,13,13,0,0,0,4.27.64,17.69,17.69,0,0,0,4.58-.58,29.29,29.29,0,0,0,3.25-.75,9,9,0,0,1,3.21-.32c.64,0,.9.27.8.8C604.55,257.74,605,258.06,605,258.7Z"/><path class="cls-3" d="M616.23,280.41q-3.13,7.09-8.9,8.42a6.07,6.07,0,0,1-1.39.17c-2,0-4.07-1.11-6.13-3.31a8.19,8.19,0,0,1-2.08-5.81,18.54,18.54,0,0,1,2.35-8.49,12.66,12.66,0,0,1,2.45-3.3,4.67,4.67,0,0,1,3.14-1.66,2.43,2.43,0,0,1,1.6.64,14.78,14.78,0,0,0,4,1.71,6,6,0,0,1,3.63,2.88,13.73,13.73,0,0,1,1.87,6.13A6.2,6.2,0,0,1,616.23,280.41ZM612,277.1c-.25-2.59-1-4.14-2.08-4.64a1.33,1.33,0,0,0-.48-.1c-.43,0-1,.35-1.6,1.06a5,5,0,0,1-1.66,1.44c-.25.11-.6,0-1.06-.32a2.41,2.41,0,0,0-.91-.48.39.39,0,0,0-.27.11,6.18,6.18,0,0,0-1.86,5,6.86,6.86,0,0,0,1.06,3.89c1,1.46,1.84,2.19,2.51,2.19q2.36,0,4.54-2.93A7.41,7.41,0,0,0,612,277.1Z"/><path class="cls-3" d="M641.46,259.61q-.75,7.14-1.44,14.34a140.15,140.15,0,0,0-.9,14.24c0,1.25,0,2.47.1,3.68a1.85,1.85,0,0,1-.61,1.5,2.17,2.17,0,0,1-1.52.64c-1.1,0-2-.75-2.77-2.24a186.68,186.68,0,0,1-8.48-20.91c-.08-.21-.17-.32-.27-.32q-.37,0-.48.75a134.73,134.73,0,0,0-.91,16q0,4.05.22,8.27a2.2,2.2,0,0,1-.91,2.13,1.14,1.14,0,0,1-.8.38,2.1,2.1,0,0,1-1-.33c-.54-.24-.87-.41-1-.47-.47-.15-.75-.57-.86-1.29,0-.57-.07-1.15-.11-1.76-.1-2-.16-4.07-.16-6.23q0-5.66.65-14.14,1-12.9,1.11-14.29c0-.78.7-1.18,2-1.18.6-.07,1.49.38,2.67,1.34a83.16,83.16,0,0,1,4.21,10.56,73,73,0,0,0,4.37,10.61q.81-7.1,2.51-21.44c.1-.71.62-1.07,1.54-1.07a5.1,5.1,0,0,1,1.13.16c.57.14.9.24,1,.27A1.1,1.1,0,0,1,641.46,259.61Z"/><path class="cls-3" d="M662.58,280.41q-3.15,7.09-8.91,8.42a5.92,5.92,0,0,1-1.38.17c-2,0-4.07-1.11-6.14-3.31a8.23,8.23,0,0,1-2.07-5.81,18.64,18.64,0,0,1,2.34-8.49,12.69,12.69,0,0,1,2.46-3.3,4.67,4.67,0,0,1,3.14-1.66,2.45,2.45,0,0,1,1.6.64,14.63,14.63,0,0,0,4,1.71,6,6,0,0,1,3.63,2.88,13.86,13.86,0,0,1,1.87,6.13A6.2,6.2,0,0,1,662.58,280.41Zm-4.27-3.31q-.37-3.89-2.08-4.64a1.28,1.28,0,0,0-.47-.1c-.43,0-1,.35-1.6,1.06a5.17,5.17,0,0,1-1.66,1.44c-.25.11-.61,0-1.06-.32a2.48,2.48,0,0,0-.91-.48.37.37,0,0,0-.27.11,6.19,6.19,0,0,0-1.87,5,6.86,6.86,0,0,0,1.07,3.89c1,1.46,1.83,2.19,2.51,2.19q2.34,0,4.53-2.93A7.36,7.36,0,0,0,658.31,277.1Z"/><path class="cls-3" d="M691.49,292.83c.14.72-.38,1.11-1.55,1.18a3.53,3.53,0,0,1-2.4-1,6.17,6.17,0,0,1-1.6-2.94,22.46,22.46,0,0,1-.64-5.28,39.54,39.54,0,0,0-.38-5.28q-.69,2.4-2.29,7.15c-.64,1.74-1,2.74-1.17,3-.57,1.11-1.28,1.6-2.14,1.5a6,6,0,0,1-3.94-2.88,17.65,17.65,0,0,1-1.71-4.75,28.78,28.78,0,0,0-1.44-4.8q-2.29,11.15-4.9,16.64c-.25.53-1,.5-2.25-.11a2.31,2.31,0,0,1-1.54-2.13,18.19,18.19,0,0,1,1.12-3.41q.48-1.29,3.73-12.32a100.44,100.44,0,0,0,2.35-13.5,7,7,0,0,0,.53-1.12,1,1,0,0,1,1-.74,3.54,3.54,0,0,1,2.51.69,40,40,0,0,0,.5,5,38.55,38.55,0,0,1,.51,5.2q.48,3,.91,6a13.5,13.5,0,0,0,2.13,5.6q5.13-14.24,6.51-22.5c.14-.57.67-.86,1.6-.86,1.31,0,2.06.43,2.24,1.29a23.17,23.17,0,0,1,.37,4.42c0,.54,0,1.71-.11,3.52q0,2.19,0,3.57A119.1,119.1,0,0,0,691.49,292.83Z"/><path class="cls-3" d="M700.45,264.94c.06,1,.1,2.1.1,3.2q0,3.63-.74,10.93c-.5,4.87-.75,8.56-.75,11,0,.93,0,1.84.05,2.72a1.9,1.9,0,0,1-2.08,1.44c-1.53-.07-2.36-.72-2.5-2a33.12,33.12,0,0,1-.22-3.95,99.4,99.4,0,0,1,.88-10.82,96.69,96.69,0,0,0,.88-10.78c0-.92,0-1.83-.11-2.71a1.89,1.89,0,0,1,1.82-1,4.07,4.07,0,0,1,2,.59.63.63,0,0,1,.31-.16c.11,0,.17.18.17.53a2.06,2.06,0,0,0,0,.75A.32.32,0,0,0,700.45,264.94Z"/><path class="cls-3" d="M722,265.26a57.34,57.34,0,0,1-5.81,1.87,54.89,54.89,0,0,0-5.81,1.87,26.93,26.93,0,0,0-.7,6.18,5.71,5.71,0,0,0,2,.32,18,18,0,0,0,2.5-.27,19.31,19.31,0,0,1,2.51-.26,4.84,4.84,0,0,1,2.56.64A3.72,3.72,0,0,1,720,277a.66.66,0,0,1-.38.59,6.87,6.87,0,0,0-.74.75,1.21,1.21,0,0,1-1.07.42,22,22,0,0,1-4.11.32,12.05,12.05,0,0,0-4,.64,27.05,27.05,0,0,0-1,6.24,5.78,5.78,0,0,0,.43,2.46c1.67,1.17,4.56,1.67,8.69,1.49a1.47,1.47,0,0,0,.91-.4,1.35,1.35,0,0,1,.8-.4c1-.21,1.65.53,2,2.24a2.1,2.1,0,0,1-.29,1.57,1.61,1.61,0,0,1-1.31.78,39.8,39.8,0,0,1-11.2-1,5.67,5.67,0,0,1-2.72-1.65,4.77,4.77,0,0,1-1.39-2.88,36.06,36.06,0,0,1,0-8.32c-1-.68-1.44-1.33-1.33-2,0-.32.31-.62.83-.88s.8-.55.88-.83.21-2,.42-5.07c-2-.39-3-1.13-2.93-2.24a2.88,2.88,0,0,1,1.86-2.45L707.7,265a25.38,25.38,0,0,1,5-1.81c1.74-.46,3.48-.91,5.23-1.33a2.9,2.9,0,0,1,.64-.06,7,7,0,0,1,3.36,1.12,7.33,7.33,0,0,0,.26.8,2.72,2.72,0,0,1,.22.86A.82.82,0,0,1,722,265.26Z"/></g></g></svg>